<svg width="466" height="467" viewBox="0 0 466 467" fill="none" xmlns="http://www.w3.org/2000/svg">
<path d="M447.5 200.807C435.524 122.385 386.401 26.045 289.361 15.9639C289.361 15.9639 215.684 7.0021 143.058 20.5837C99.9479 28.6445 62.151 52.6415 38.234 87.1294C14.317 121.617 6.32841 163.673 16.0233 203.763C22.3212 229.804 26.5769 256.755 25.409 283.507C23.3683 330.079 24.5456 373.549 69.7408 401.323C110.096 426.126 160.883 447.994 209.336 451.824C242.263 454.428 279.19 450.215 310.925 441.643C472.658 397.97 459.48 279.219 447.5 200.807Z" fill="#919EAB" fill-opacity="0.08"/>
<path opacity="0.48" d="M421.081 119.422L260.62 25.7378L255.509 22.8023L257.132 21.1117L248.209 18.5765L235.629 24.573L45.5583 119.519H45.2554V369.158L55.7822 370.413L60.1022 369.06L58.8621 367.676L180.149 355.742L192.365 354.54L301.551 343.789L312.579 342.702L411.308 332.97L421.306 331.976V119.417L421.081 119.422ZM248.215 31.9289L399.455 119.453L74.7435 119.86L248.215 31.9289ZM58.8025 355.034V133.226L180.179 132.441V343.756L58.8025 355.034ZM192.641 342.583V132.375L301.555 131.648V332.365L192.641 342.583ZM411.011 322.118L312.934 331.367V131.592L411.011 130.942V322.118Z" fill="#919EAB"/>
<path d="M428.893 333.156L56.6352 370.179V357.554L428.893 322.373V333.156Z" fill="#DFE3E8"/>
<path d="M69.6392 368.88L56.6352 370.179V127.318L69.6392 127.265V368.88Z" fill="#DFE3E8"/>
<path d="M201.853 355.686L189.39 356.921V126.749L201.853 126.705V355.686Z" fill="#DFE3E8"/>
<path d="M320.521 343.863L309.683 344.98V126.255L320.521 126.205V343.863Z" fill="#DFE3E8"/>
<path d="M428.893 333.158L419.682 334.116V125.804L428.893 125.76V333.158Z" fill="#DFE3E8"/>
<path d="M269.5 28.376L257.143 34.6802L62.0994 134.149L56.5361 122.862L244.657 27.4373L257.143 21.1441L269.5 28.376Z" fill="#DFE3E8"/>
<path d="M429.023 121.78L424.433 131.664L257.143 34.6802L244.657 27.4373L257.143 21.1441L269.5 28.376L429.023 121.78Z" fill="#DFE3E8"/>
<path d="M428.893 132.734L56.6352 135.486V122.86L428.893 121.952V132.734Z" fill="#DFE3E8"/>
<path d="M199.254 352.701C200.708 351.247 200.708 348.891 199.254 347.437C197.801 345.984 195.444 345.984 193.991 347.437C192.537 348.891 192.537 351.247 193.991 352.701C195.444 354.154 197.801 354.154 199.254 352.701Z" fill="#C4CDD5"/>
<path d="M67.8671 133.057C69.3206 131.603 69.3206 129.247 67.8671 127.793C66.4136 126.34 64.057 126.34 62.6035 127.793C61.15 129.247 61.15 131.603 62.6035 133.057C64.057 134.51 66.4136 134.51 67.8671 133.057Z" fill="#C4CDD5"/>
<path d="M200.239 131.273C200.711 129.272 199.472 127.268 197.471 126.796C195.471 126.323 193.466 127.562 192.994 129.563C192.522 131.564 193.761 133.568 195.761 134.04C197.762 134.512 199.766 133.273 200.239 131.273Z" fill="#C4CDD5"/>
<path d="M318.034 131.067C319.488 129.614 319.488 127.257 318.034 125.804C316.581 124.35 314.224 124.35 312.771 125.804C311.317 127.257 311.317 129.614 312.771 131.067C314.224 132.521 316.581 132.521 318.034 131.067Z" fill="#C4CDD5"/>
<path d="M425.532 131.067C426.986 129.614 426.986 127.257 425.532 125.804C424.079 124.35 421.722 124.35 420.269 125.804C418.815 127.257 418.815 129.614 420.269 131.067C421.722 132.521 424.079 132.521 425.532 131.067Z" fill="#C4CDD5"/>
<path d="M258.976 31.5306C260.43 30.0771 260.43 27.7205 258.976 26.267C257.523 24.8135 255.166 24.8135 253.713 26.267C252.259 27.7205 252.259 30.0771 253.713 31.5306C255.166 32.9841 257.523 32.9841 258.976 31.5306Z" fill="#C4CDD5"/>
<path d="M66.2055 362.851C66.6777 360.85 65.4387 358.845 63.4381 358.373C61.4375 357.901 59.4329 359.14 58.9607 361.141C58.4885 363.141 59.7276 365.146 61.7281 365.618C63.7287 366.09 65.7333 364.851 66.2055 362.851Z" fill="#C4CDD5"/>
<path d="M319.015 339.627C319.487 337.627 318.248 335.622 316.248 335.15C314.247 334.678 312.242 335.917 311.77 337.917C311.298 339.918 312.537 341.923 314.538 342.395C316.538 342.867 318.543 341.628 319.015 339.627Z" fill="#C4CDD5"/>
<path d="M425.56 330.83C426.868 329.521 426.868 327.4 425.56 326.092C424.252 324.784 422.131 324.784 420.823 326.092C419.515 327.4 419.515 329.521 420.823 330.83C422.131 332.138 424.252 332.138 425.56 330.83Z" fill="#C4CDD5"/>
<path d="M354.454 258.695C347.05 256.395 341.493 251.276 337.378 245.508C329.277 234.134 326.771 220.201 326.771 220.201L329.023 216.59L333.488 209.443C337.3 224.814 366.995 237.16 366.995 237.16C368.921 243.728 376.45 265.532 354.454 258.695Z" fill="#FDAB76"/>
<path opacity="0.24" d="M356.836 252.399C356.836 252.399 346.516 251.105 337.378 245.501C329.277 234.126 326.771 220.193 326.771 220.193L329.023 216.583C331.329 218.143 334.765 221.345 336.087 227.047C338.14 235.971 348.631 232.781 356.844 239.968C365.057 247.154 356.836 252.399 356.836 252.399Z" fill="#B3200E"/>
<path d="M300.605 197.301C300.605 197.301 290.182 206.419 295.582 208.745L304.373 212.541L306.471 198.166L300.605 197.301Z" fill="#770508"/>
<path d="M334.95 209.331L327.811 245.755L295.971 232.022L304.471 196.186L334.95 209.331Z" fill="#770508"/>
<path d="M249.851 152.316L249.715 152.631C249.004 154.279 249.764 156.192 251.413 156.903L277.491 168.15C279.14 168.861 281.053 168.101 281.764 166.453L281.9 166.139C282.611 164.49 281.851 162.577 280.202 161.866L254.124 150.619C252.475 149.908 250.562 150.668 249.851 152.316Z" fill="#770508"/>
<path d="M279.465 161.428L276.394 168.55C275.371 170.922 276.464 173.673 278.836 174.696L279.046 174.787C281.418 175.81 284.169 174.716 285.192 172.345L288.264 165.223C289.287 162.851 288.193 160.1 285.822 159.077L285.611 158.986C283.24 157.963 280.488 159.057 279.465 161.428Z" fill="#770508"/>
<path d="M277.776 177.824C277.226 179.028 277.11 180.385 277.447 181.665C277.784 182.945 278.554 184.069 279.626 184.846C284.021 187.998 288.455 191.107 292.928 194.175C298.017 181.76 303.106 169.344 308.194 156.927C303.23 156.066 298.267 155.152 293.303 154.185C292.037 153.941 290.725 154.133 289.581 154.728C288.437 155.323 287.528 156.287 287 157.464C283.929 164.249 280.854 171.035 277.776 177.824Z" fill="#FA541C"/>
<path d="M308.276 156.835L292.285 193.911L335.017 212.342C337.081 213.232 339.299 213.707 341.546 213.739C343.793 213.772 346.024 213.362 348.112 212.532C350.201 211.702 352.105 210.469 353.717 208.904C355.328 207.338 356.616 205.47 357.506 203.407L359.945 197.756C361.742 193.589 361.81 188.88 360.135 184.663C358.459 180.446 355.178 177.068 351.012 175.27L308.276 156.835Z" fill="#FDAB76"/>
<path opacity="0.24" d="M311.919 169.118L311.851 169.277C311.196 170.795 311.896 172.556 313.414 173.211L336.196 183.037C337.714 183.691 339.476 182.991 340.13 181.473L340.199 181.315C340.853 179.797 340.153 178.035 338.635 177.38L315.854 167.555C314.336 166.9 312.574 167.6 311.919 169.118Z" fill="#B3200E"/>
<path d="M332.678 252.324C333.035 251.499 333.225 250.611 333.238 249.713C333.251 248.814 333.087 247.922 332.755 247.086C332.423 246.251 331.93 245.489 331.303 244.845C330.677 244.2 329.93 243.685 329.104 243.329L292.657 227.61C291.832 227.254 290.945 227.063 290.046 227.05C289.147 227.037 288.255 227.201 287.42 227.533C286.584 227.865 285.823 228.358 285.178 228.984C284.533 229.61 284.018 230.357 283.662 231.182C283.306 232.008 283.116 232.895 283.103 233.794C283.09 234.693 283.254 235.585 283.586 236.42C283.918 237.256 284.411 238.017 285.038 238.662C285.664 239.307 286.411 239.822 287.237 240.177L323.684 255.897C324.509 256.253 325.396 256.443 326.295 256.456C327.193 256.47 328.086 256.306 328.921 255.974C329.756 255.642 330.518 255.149 331.163 254.523C331.808 253.896 332.323 253.149 332.678 252.324Z" fill="#FA541C"/>
<path d="M351.998 403.426L352.542 412.144C352.542 412.144 351.304 413.455 348.922 412.543L346.321 403.981L351.998 403.426Z" fill="#FDBAB9"/>
<path d="M350.913 409.839C350.913 409.839 355.183 411.581 354.354 413.47C353.91 414.484 352.37 416.774 351.039 418.678C350.438 419.538 349.582 420.187 348.592 420.532C347.602 420.878 346.528 420.903 345.523 420.603C344.83 420.396 344.124 420.193 343.498 420.033C343.217 419.96 342.967 419.798 342.785 419.573C342.603 419.347 342.498 419.069 342.486 418.779C342.474 418.489 342.555 418.203 342.718 417.963C342.88 417.723 343.116 417.541 343.389 417.444C343.956 417.236 344.539 417.078 345.133 416.974C346.695 416.732 348.847 413.04 349.099 411.559C349.35 410.079 350.913 409.839 350.913 409.839Z" fill="#063963"/>
<path d="M361.17 319.747C354.88 321.918 331.622 330.71 326.44 350.875C326.164 351.952 325.454 354.946 325.423 359.835C325.29 380.189 337.126 397.416 345.733 407.437L353.875 407.301C355.23 402.106 356.473 394.336 354.527 385.594C351.544 372.23 343.825 368.766 345.315 362.204C348.02 350.294 375.675 352.096 378.28 341.431C379.222 337.582 377.153 331.044 361.17 319.747Z" fill="#116E95"/>
<path d="M438.962 441.61L427.152 441.335C426.992 441.333 426.836 441.28 426.705 441.186C426.575 441.092 426.477 440.96 426.424 440.808C426.372 440.656 426.367 440.492 426.41 440.337C426.454 440.182 426.544 440.045 426.669 439.943C426.977 439.669 427.339 439.462 427.731 439.335C428.124 439.208 428.538 439.163 428.948 439.203C431.193 439.437 436.234 436.296 438.524 436.97C439.271 437.19 439.879 438.948 440.189 439.433C440.329 439.649 440.406 439.899 440.414 440.156C440.421 440.413 440.359 440.668 440.232 440.892C440.106 441.116 439.921 441.301 439.697 441.428C439.473 441.554 439.219 441.617 438.962 441.61Z" fill="#063963"/>
<path d="M433.656 432.533L438.522 436.966C437.911 437.361 437.227 437.629 436.509 437.753C435.792 437.878 435.057 437.857 434.348 437.691L429.377 434.269L433.656 432.533Z" fill="#FDBAB9"/>
<path opacity="0.24" d="M340.305 372.264C337.043 363.457 333.132 352.598 337.598 346.433C342.119 340.193 352.025 345.46 361.961 340.432C365.647 338.567 369.435 335.23 372.585 329.191C378.163 334.949 378.921 338.814 378.281 341.435C375.675 352.1 348.02 350.298 345.315 362.208C343.826 368.766 351.549 372.231 354.527 385.597C356.2 393.113 355.514 399.904 354.429 404.965C353.404 399.926 351.803 395.022 349.657 390.349C346.094 382.624 343.741 381.541 340.305 372.264Z" fill="#063963"/>
<path d="M357.566 317.203C361.395 334.784 369.553 361.616 388.241 389.629C399.616 406.667 413.413 421.957 429.198 435.017C431.56 435.728 434.102 435.533 436.327 434.469C435.183 427.434 432.935 420.624 429.667 414.29C422.151 399.824 415.459 400.289 407.91 387.52C402.381 378.172 400.584 368.24 396.991 348.378C394.214 333.042 394.212 329.375 390.412 324.978C382.728 316.082 368.298 315.981 357.566 317.203Z" fill="#116E95"/>
<path d="M371.987 225.269C370.698 222.729 370.166 222.743 369.849 221.403C369.127 218.35 370.99 214.469 372.571 214.416C373.59 214.381 373.67 215.964 375.83 218.433C378.472 221.456 380.068 221.059 381.629 223.684C381.993 224.297 383.629 227.06 382.622 229.123C381.338 231.755 376.274 232.171 374.158 230.142C373.154 229.179 373.576 228.398 371.987 225.269Z" fill="#770508"/>
<path d="M375.783 228.009C375.783 228.009 374.879 232.836 375.522 236.76C376.105 240.306 382.674 243.99 383.935 245.047C385.195 246.103 380.594 247.244 376.375 246.698C372.155 246.152 360.605 242.449 358.848 240.389C357.092 238.33 360.889 239.344 364.088 238.955C367.287 238.565 370.334 233.209 370.427 230.478C370.519 227.746 375.783 228.009 375.783 228.009Z" fill="#FDBAB9"/>
<path d="M374.408 231.609C374.408 231.609 371.177 233.022 368.317 230.739C365.755 228.698 369.564 222.399 372.17 222.319C373.039 222.292 374.308 222.914 375.058 223.826C375.499 224.364 375.529 224.722 376.267 225.587C376.948 226.386 377.249 226.458 377.351 226.843C377.482 227.328 377.259 228.138 375.505 229.53C376.38 229.374 377.133 229.6 377.425 230.11C377.517 230.294 377.556 230.501 377.538 230.706C377.442 231.658 376.187 232.097 374.408 231.609Z" fill="#FDBAB9"/>
<path d="M303.426 214.824C303.426 214.824 301.471 214.551 302.081 210.815C302.552 207.887 302.197 206.901 301.505 207.421C300.813 207.94 300.72 209.633 300.72 209.633C300.72 209.633 298.198 207.482 297.16 204.664C296.122 201.847 295.455 204.219 295.232 205.628C295.009 207.038 296.716 211.411 297.68 212.221C298.643 213.031 300.051 216.632 300.051 216.632L303.426 214.824Z" fill="#FDBAB9"/>
<path d="M298.214 215.822L304.891 211.147C307.597 227.787 313.752 234.322 318.978 237.18C331.588 244.072 342.838 231.79 366.98 236.802C373.631 238.183 385.223 240.756 391.652 250.231C393.342 252.723 393.943 254.608 396.749 272.475C400.336 295.314 400.464 299.299 399.957 304.217C399.033 313.217 398.472 318.672 394.322 323.499C383.304 336.316 359.883 329.707 356.947 328.836C351.522 327.23 343.092 324.733 339.743 317.564C338.173 314.192 338.33 311.109 340.757 298.775C345.554 274.345 346.168 272.762 344.829 270.087C340.308 261.06 325.991 266.226 313.888 257.829C306.815 252.922 298.842 242.224 298.214 215.822Z" fill="#FDAB76"/>
<path opacity="0.24" d="M367.921 325.576C365.567 320.733 368.735 316.271 365.253 310.448C360.815 303.03 352.831 305.549 349.828 300.067C344.69 290.691 364.912 277.62 360.803 262.691C358.842 255.566 351.991 250.408 346.268 248.453C333.564 244.116 325.254 255.174 313.342 251.717C310.517 250.898 307.28 249.205 304.002 245.675C306.898 251.786 310.496 255.478 313.892 257.833C325.99 266.229 340.311 261.063 344.832 270.091C346.171 272.76 345.557 274.348 340.76 298.779C338.338 311.112 338.17 314.195 339.746 317.567C343.096 324.736 351.519 327.234 356.95 328.84C358.558 329.311 366.303 331.508 374.792 331.293C371.006 329.755 368.965 327.714 367.921 325.576Z" fill="#B3200E"/>
<path d="M352.64 329.189C352.64 329.189 331.531 322.753 339.391 288.491C344.824 270.09 342.471 271.231 342.471 271.231C342.471 271.231 371.613 276.832 376.313 271.231C381.013 265.63 364.531 239.903 358.399 235.657C358.399 235.657 363.203 233.982 366.975 236.803C370.747 239.624 385.803 269.508 390.137 269.735C394.471 269.963 388.212 248.085 385.525 243.969C385.525 243.969 391.102 246.997 393.813 255.742C396.524 264.488 403.062 318.324 396.942 324.941C390.821 331.557 376.725 332.697 376.725 332.697L352.64 329.189Z" fill="#FA541C"/>
<path d="M139.883 302.125H112.503C109.699 302.125 107.322 303.822 106.494 306.237L88.6045 358.971V430.859L122.386 427.126L127.375 426.572L158.8 423.107L157.998 355.438L139.883 302.125Z" fill="#FDAB76"/>
<path d="M147.142 306.097C146.344 303.77 144.051 302.125 141.401 302.125H118.768C115.996 302.125 113.615 303.814 112.803 306.207L95.1494 358.568L95.2295 430.069L128.578 426.416L133.562 425.878L164.8 422.442L163.954 355.227L147.142 306.097Z" fill="#FDAB76"/>
<path d="M128.163 314.489V313.954C128.076 313.901 127.977 313.87 127.876 313.863C125.742 313.694 124.038 316.397 124.038 319.907C124.038 323.417 125.725 326.388 127.86 326.534C127.962 326.545 128.065 326.535 128.163 326.506V326.271L269.59 335.98V325.691L128.163 314.489Z" fill="#FDAB76"/>
<path opacity="0.24" d="M128.164 314.49V313.954C128.077 313.902 127.979 313.87 127.877 313.863C125.744 313.694 124.039 316.397 124.039 319.907C124.039 323.417 125.727 326.388 127.861 326.534C127.963 326.545 128.066 326.535 128.164 326.506V326.271L269.591 335.98V325.691L128.164 314.49Z" fill="#B3200E"/>
<path d="M296.679 399.415L159.588 383.518V352.84L296.679 369.062V399.415Z" fill="#FDAB76"/>
<path opacity="0.48" d="M296.679 373.228L159.588 357.052V352.84L296.679 369.062V373.228Z" fill="#FEE9D1"/>
<path d="M231.867 440.17L220.682 433.861L220.59 421.023L209.405 414.714L209.33 401.872L198.132 395.557L198.04 382.721L186.981 376.402L186.992 376.313L186.929 376.285L186.894 376.258L186.975 363.138L176.297 356.543L176.208 356.504L175.785 356.534L175.696 356.702L175.547 344.261L164.817 338.292L164.712 338.153L164.63 325.429L153.769 319.31L153.43 318.748L153.347 306.295L142.721 300.297L142.153 299.33L142.071 287.15L131.711 281.301L130.871 279.895L130.794 268.005L120.663 262.288L120.054 261.243L121.465 260.904L164.896 250.201L178.51 246.849L251.754 425.98L247.048 429.348L231.867 440.17Z" fill="#C4CDD5"/>
<path opacity="0.48" d="M247.048 429.348L164.896 250.201L178.51 246.849L251.754 425.98L247.048 429.348Z" fill="#919EAB"/>
<path d="M179.494 345.626C178.872 346.531 178.636 347.647 178.836 348.727C179.037 349.807 179.658 350.763 180.563 351.385L181.179 351.807C182.084 352.429 183.2 352.666 184.28 352.465C185.36 352.265 186.316 351.644 186.938 350.738L234.345 281.708C234.967 280.802 235.204 279.687 235.003 278.607C234.803 277.527 234.181 276.57 233.276 275.948L232.661 275.524C232.212 275.216 231.708 275 231.175 274.887C230.643 274.774 230.094 274.767 229.559 274.866C229.024 274.966 228.514 275.17 228.058 275.466C227.602 275.763 227.209 276.146 226.901 276.595L179.494 345.626Z" fill="#063963"/>
<path d="M227.686 265.341L241.489 252.022C241.788 251.735 242.176 251.56 242.589 251.527C243.001 251.494 243.413 251.605 243.753 251.841L248.764 255.295L251.534 257.199C251.872 257.432 252.12 257.773 252.237 258.166C252.353 258.56 252.331 258.981 252.175 259.361L244.695 277.027C244.463 277.575 244.062 278.035 243.55 278.339L239.254 280.851C237.85 281.686 236.138 281.56 234.793 280.636L232.447 279.025L230.171 277.455L227.862 275.87C226.517 274.947 225.785 273.391 226.062 271.788L226.889 266.842C226.985 266.269 227.265 265.742 227.686 265.341Z" fill="#063963"/>
<path d="M182.022 244.056L159.323 186.342C158.9 185.271 158.15 184.359 157.181 183.737C156.211 183.115 155.07 182.813 153.92 182.874L149.245 183.135C149.094 183.141 148.944 183.155 148.795 183.177C147.676 183.331 146.633 183.826 145.807 184.595C144.982 185.365 144.414 186.371 144.183 187.475L143.04 192.91C142.83 193.894 142.355 194.801 141.667 195.534C140.978 196.266 140.101 196.797 139.133 197.067L104.34 206.656C100.659 207.673 97.5312 210.108 95.6436 213.428C93.756 216.748 93.2626 220.682 94.2719 224.365L101.843 251.982C102.674 255.024 104.6 257.651 107.251 259.36L123.355 269.76C124.459 270.472 125.753 270.833 127.066 270.794C127.763 270.776 128.452 270.644 129.107 270.403L178.189 252.549C179.005 252.251 179.753 251.794 180.389 251.203C181.026 250.612 181.538 249.9 181.895 249.108C182.252 248.317 182.447 247.462 182.469 246.593C182.49 245.725 182.338 244.861 182.02 244.053L182.022 244.056ZM158.581 236.193L124.396 249.676C123.896 249.873 123.361 249.966 122.824 249.948C122.286 249.931 121.759 249.803 121.273 249.572C120.787 249.342 120.354 249.015 120 248.61C119.646 248.206 119.379 247.733 119.216 247.221L111.681 223.693C111.523 223.201 111.465 222.683 111.508 222.169C111.551 221.655 111.695 221.154 111.932 220.695C112.169 220.236 112.495 219.829 112.89 219.496C113.284 219.164 113.741 218.912 114.233 218.756L149.649 207.54C150.146 207.383 150.669 207.326 151.189 207.374C151.708 207.421 152.213 207.572 152.673 207.816C153.134 208.061 153.541 208.395 153.871 208.799C154.201 209.202 154.447 209.668 154.595 210.168L160.891 231.431C161.17 232.37 161.087 233.379 160.66 234.26C160.232 235.141 159.491 235.831 158.581 236.193Z" fill="#FDAB76"/>
<path opacity="0.24" d="M150.377 189.783C148.93 195.749 148.388 203.189 139.36 203.346C130.333 203.503 99.2637 211.095 99.6216 218.681C99.9796 226.268 106.124 254.861 110.453 256.459C110.453 256.459 126.595 267.605 127.061 270.798C125.748 270.836 124.454 270.475 123.35 269.763L107.251 259.36C104.6 257.652 102.674 255.024 101.843 251.982L94.2719 224.365C93.2626 220.682 93.756 216.749 95.6436 213.429C97.5312 210.109 100.659 207.673 104.34 206.657L139.133 197.067C140.101 196.797 140.978 196.267 141.667 195.534C142.355 194.801 142.83 193.894 143.04 192.91L144.183 187.476C144.414 186.371 144.982 185.365 145.807 184.596C146.633 183.826 147.676 183.331 148.795 183.178C150.057 184.837 151.033 187.085 150.377 189.783Z" fill="#B3200E"/>
<path d="M171.424 334.784L169.297 337.88C168.002 339.766 168.481 342.345 170.367 343.64L191.897 358.426C193.783 359.721 196.361 359.242 197.657 357.357L199.783 354.26C201.079 352.374 200.6 349.795 198.714 348.5L177.184 333.714C175.298 332.419 172.719 332.898 171.424 334.784Z" fill="#77F0ED"/>
<path d="M162.732 339.088L116.614 406.237C115.377 408.055 114.909 410.289 115.314 412.45C115.719 414.611 116.963 416.525 118.774 417.772L141.253 433.209C143.064 434.452 145.295 434.926 147.455 434.525C149.615 434.124 151.527 432.881 152.771 431.071L198.889 363.922C199.788 362.614 200.292 361.076 200.343 359.49C200.393 357.904 199.987 356.337 199.173 354.975C198.568 353.947 197.745 353.064 196.762 352.389L174.284 336.95C172.468 335.705 170.232 335.231 168.067 335.632C165.901 336.033 163.983 337.276 162.732 339.088Z" fill="#77F0ED"/>
<path d="M142.624 418.5C142.4 418.827 142.243 419.194 142.162 419.581C142.08 419.968 142.076 420.368 142.149 420.756C142.222 421.145 142.37 421.516 142.587 421.847C142.803 422.178 143.082 422.464 143.409 422.687C143.735 422.91 144.102 423.067 144.489 423.148C144.876 423.23 145.275 423.234 145.664 423.161C146.052 423.088 146.423 422.94 146.754 422.724C147.085 422.508 147.37 422.228 147.594 421.902L185.81 366.26C186.033 365.934 186.19 365.567 186.272 365.179C186.353 364.792 186.358 364.393 186.285 364.004C186.212 363.615 186.063 363.245 185.847 362.914C185.631 362.582 185.351 362.297 185.025 362.074C184.699 361.85 184.331 361.693 183.944 361.612C183.557 361.53 183.158 361.526 182.77 361.599C182.381 361.672 182.01 361.82 181.679 362.037C181.348 362.253 181.063 362.532 180.84 362.858L142.624 418.5Z" fill="#116E95"/>
<path d="M127.027 407.79C126.803 408.116 126.646 408.483 126.565 408.87C126.483 409.257 126.479 409.656 126.552 410.045C126.624 410.433 126.773 410.804 126.989 411.135C127.206 411.466 127.485 411.751 127.811 411.975C128.137 412.198 128.504 412.356 128.891 412.438C129.277 412.52 129.676 412.525 130.065 412.453C130.454 412.381 130.824 412.233 131.156 412.017C131.487 411.802 131.773 411.523 131.996 411.197L170.22 355.545C170.444 355.218 170.601 354.851 170.682 354.464C170.764 354.077 170.768 353.677 170.695 353.289C170.622 352.9 170.474 352.529 170.257 352.198C170.041 351.867 169.762 351.581 169.435 351.358C169.109 351.135 168.742 350.978 168.355 350.896C167.968 350.815 167.569 350.811 167.18 350.884C166.792 350.957 166.421 351.105 166.09 351.321C165.759 351.537 165.474 351.816 165.25 352.143L127.027 407.79Z" fill="#116E95"/>
<path opacity="0.32" d="M115.201 411.496C115.282 412.745 115.646 413.959 116.265 415.047C116.884 416.135 117.742 417.067 118.774 417.775L141.253 433.212C143.064 434.456 145.295 434.929 147.455 434.528C149.614 434.127 151.527 432.885 152.77 431.074L198.889 363.926C199.788 362.618 200.292 361.079 200.342 359.493C200.392 357.907 199.984 356.339 199.168 354.978C196.873 360.067 193.762 367.641 188.555 370.431C183.587 373.09 174.915 380.534 172.094 390.739C169.273 400.944 158.681 420.262 148.226 422.717C137.771 425.172 129.663 426.819 115.201 411.496Z" fill="#116E95"/>
<path d="M231.113 402.272L94.5654 386.373V355.697L231.113 371.919V402.272Z" fill="#FDAB76"/>
<path d="M231.113 445.718L94.5654 430.287V399.609L231.113 415.367V445.718Z" fill="#FDAB76"/>
<path d="M282.471 311.34H255.117C252.31 311.34 249.889 313.235 249.059 315.79L231.113 371.338V445.72L264.235 441.676L269.235 441.07L300.415 437.256L300.282 367.537L282.471 311.34Z" fill="#FDAB76"/>
<path d="M304.588 367.341L304.745 436.724L236.196 445.116L236.185 371.072L254.051 315.769C254.477 314.489 255.292 313.374 256.383 312.579C257.473 311.785 258.784 311.35 260.133 311.336H282.796C285.446 311.336 287.637 313.17 288.411 315.628L304.588 367.341Z" fill="#FDAB76"/>
<g opacity="0.24">
<path d="M231.113 376.085L94.5654 359.907V355.697L231.113 371.919V376.085Z" fill="#B3200E"/>
<path d="M231.113 420.128L94.5654 404.421V399.609L231.113 415.367V420.128Z" fill="#B3200E"/>
<path d="M277.685 330.188C277.685 333.309 276.067 335.877 274.054 335.922C272.042 335.968 270.386 333.461 270.383 330.318C270.38 327.176 272.018 324.611 274.039 324.586C276.059 324.56 277.681 327.069 277.685 330.188Z" fill="#B3200E"/>
<path d="M304.589 367.89L304.746 436.729L239.177 444.751C239.045 435.083 241.252 424.739 250.603 418.666C257.784 413.996 267.714 415.87 273.979 410.385C279.013 405.979 279.137 398.669 280.347 392.936C283.057 380.185 294.191 378.379 302.517 370.152C303.104 369.573 303.52 368.81 304.589 367.89Z" fill="#B3200E"/>
</g>
<path d="M400.56 122.39C404.279 124.274 408.951 122.547 410.996 118.517C413.041 114.488 411.682 109.695 407.963 107.807C407.772 107.71 407.574 107.628 407.378 107.55C408.061 105.351 408.583 103.105 408.938 100.829C409.152 100.829 409.365 100.829 409.583 100.806C413.822 100.427 417.193 96.5282 417.104 92.0967C417.014 87.6652 413.504 84.3797 409.255 84.758C409.034 84.7784 408.816 84.813 408.599 84.8507C408.164 82.6684 407.562 80.523 406.797 78.4334C406.992 78.3204 407.186 78.2011 407.376 78.0693C411.005 75.5262 412.165 70.5061 409.968 66.858C407.77 63.2098 403.045 62.3135 399.414 64.8565C399.229 64.9868 399.053 65.1281 398.881 65.2709C397.437 63.676 395.862 62.2057 394.171 60.8756C394.291 60.6794 394.408 60.4816 394.513 60.2728C396.554 56.2463 399.231 51.8478 395.482 50.0175C386.812 45.7791 383.092 49.4084 381.04 53.4349C380.933 53.6437 380.842 53.8556 380.754 54.0628C378.683 53.4839 376.567 53.0801 374.428 52.8556C374.442 52.6327 374.452 52.4082 374.449 52.1806C374.359 47.7492 375.675 45.3521 371.416 45.2736C362.128 45.0931 358.994 49.1243 359.084 53.5542C359.084 53.7865 359.107 54.0125 359.131 54.2386C356.989 54.8492 354.899 55.6249 352.877 56.5587C352.781 56.3609 352.681 56.1647 352.563 55.9732C350.365 52.325 345.64 51.4209 342.01 53.9717C338.379 56.5226 337.223 61.5349 339.423 65.1767C339.534 65.3635 339.658 65.5378 339.784 65.7105C338.157 67.3399 336.651 69.0865 335.28 70.9362C335.099 70.8232 334.917 70.7133 334.724 70.6223C331.005 68.7385 326.334 70.4653 324.29 74.4949C322.246 78.5245 323.602 83.3154 327.321 85.2038C327.514 85.3027 327.71 85.3844 327.907 85.4629C327.223 87.6597 326.702 89.9037 326.346 92.1768C326.133 92.1768 325.919 92.1768 325.703 92.2003C321.464 92.5786 318.091 96.4764 318.18 100.908C318.27 105.339 321.781 108.625 326.029 108.246C326.252 108.228 326.469 108.193 326.685 108.154C327.126 110.336 327.733 112.482 328.503 114.571C328.307 114.686 328.114 114.803 327.924 114.937C324.293 117.48 323.133 122.498 325.331 126.148C327.528 129.798 334.807 131.485 338.438 128.949C338.624 128.817 336.241 127.878 336.418 127.735C337.862 129.33 339.437 130.8 341.127 132.131C341.008 132.327 340.89 132.526 340.785 132.735C338.744 136.761 340.098 141.555 343.816 143.444C347.535 145.332 352.207 143.601 354.252 139.571C354.357 139.362 354.448 139.151 354.536 138.943C356.607 139.523 358.723 139.927 360.862 140.15C360.848 140.375 360.839 140.599 360.844 140.827C360.931 145.257 364.443 148.544 368.692 148.166C372.942 147.787 376.303 143.888 376.213 139.457C376.213 139.226 376.19 138.998 376.166 138.774C378.308 138.163 380.398 137.387 382.42 136.454C382.516 136.651 382.616 136.848 382.734 137.038C384.932 140.687 389.657 141.59 393.286 139.039C396.915 136.488 398.077 131.477 395.879 127.828C395.766 127.643 395.642 127.467 395.517 127.294C397.144 125.664 398.649 123.918 400.022 122.068C400.185 122.181 400.361 122.291 400.56 122.39ZM354.21 122.977C340.71 116.122 335.779 98.7133 343.203 84.0925C350.626 69.4716 367.589 63.1784 381.09 70.0336C394.592 76.8888 399.521 94.2991 392.098 108.918C384.674 123.538 367.71 129.832 354.21 122.977Z" fill="#116E95"/>
<path d="M409.583 100.814C413.822 100.436 417.194 96.5365 417.104 92.105C417.015 87.6736 413.505 84.3881 409.255 84.7664C409.034 84.7868 408.816 84.8213 408.599 84.859C408.165 82.6751 407.562 80.5281 406.797 78.4371C406.992 78.324 407.186 78.2047 407.376 78.0729C411.006 75.5299 415.497 69.3842 412.935 65.9857C408.069 59.5261 403.045 62.3218 399.415 64.8648C399.229 64.9951 399.053 65.1364 398.881 65.2793C397.437 63.6843 395.862 62.214 394.171 60.8839C394.291 60.6877 394.409 60.4899 394.514 60.2811C395.041 59.261 395.354 58.144 395.435 56.9986C395.516 55.8531 395.363 54.7032 394.985 53.619C391.478 59.7934 388.024 65.993 384.624 72.2176C395.396 80.1104 398.824 95.6653 392.092 108.927C386.39 120.16 375.044 126.47 363.969 125.679C363.475 126.96 362.99 128.249 362.461 129.517C361.026 132.96 359.395 136.332 357.762 139.7C358.789 139.894 359.82 140.045 360.855 140.154C360.841 140.379 360.831 140.603 360.836 140.831C360.924 145.261 363.614 149.026 371.305 148.618C375.557 148.392 376.289 143.892 376.199 139.46C376.199 139.229 376.176 139.002 376.154 138.777C378.294 138.166 380.385 137.39 382.406 136.457C382.502 136.655 382.602 136.851 382.72 137.041C384.918 140.691 392.544 142.24 396.175 139.697C399.805 137.154 398.058 131.481 395.861 127.833C395.748 127.645 395.624 127.47 395.498 127.298C397.125 125.668 398.631 123.921 400.003 122.072C400.182 122.185 400.364 122.295 400.557 122.394C404.276 124.277 408.948 122.551 410.993 118.521C413.039 114.492 411.679 109.699 407.96 107.811C407.769 107.713 407.571 107.632 407.375 107.553C408.058 105.354 408.58 103.108 408.935 100.833C409.152 100.831 409.365 100.828 409.583 100.814Z" fill="#063963"/>
<path d="M404.56 122.846C408.279 124.729 412.95 123.003 414.996 118.974C417.041 114.946 415.682 110.152 411.963 108.264C411.771 108.167 411.574 108.083 411.377 108.005C412.061 105.806 412.583 103.56 412.938 101.285C413.151 101.285 413.365 101.285 413.583 101.261C417.821 100.883 421.193 96.9852 421.104 92.5537C421.014 88.1223 417.504 84.8368 413.255 85.2151C413.033 85.2339 412.815 85.27 412.599 85.3077C412.16 83.125 411.552 80.9796 410.782 78.8905C410.977 78.7759 411.172 78.6582 411.362 78.5263C414.991 75.9833 416.151 70.9632 413.953 67.315C411.756 63.6669 407.031 62.7705 403.4 65.3136C403.215 65.4438 403.039 65.5836 402.866 65.7264C401.422 64.1318 399.847 62.6615 398.157 61.3311C398.276 61.1348 398.394 60.937 398.499 60.7283C400.54 56.7018 399.187 51.9062 395.468 50.0177C391.749 48.1293 387.077 49.8608 385.034 53.8904C384.927 54.0991 384.836 54.3111 384.748 54.5183C382.677 53.9387 380.561 53.5348 378.422 53.3111C378.436 53.0866 378.445 52.8622 378.442 52.6361C378.353 48.2047 374.841 44.9191 370.593 45.2975C366.346 45.6758 362.983 49.5735 363.073 54.005C363.073 54.2373 363.096 54.4633 363.12 54.6878C360.983 55.3029 358.896 56.0812 356.878 57.0158C356.783 56.8195 356.682 56.6218 356.564 56.4318C354.367 52.7837 349.64 51.8873 346.011 54.4304C342.382 56.9734 341.22 61.9935 343.419 65.6416C343.532 65.8284 343.655 66.0027 343.78 66.1754C342.153 67.8048 340.648 69.5514 339.277 71.4011C339.096 71.2881 338.914 71.1782 338.721 71.0872C335.002 69.2034 330.33 70.9302 328.287 74.9582C326.243 78.9862 327.599 83.7803 331.318 85.6687C331.511 85.7661 331.707 85.8493 331.903 85.9277C331.219 88.1266 330.698 90.3727 330.343 92.6479C330.129 92.6479 329.916 92.6479 329.698 92.6715C325.459 93.0498 322.088 96.9475 322.177 101.379C322.267 105.81 325.778 109.096 330.026 108.718C330.249 108.699 330.465 108.663 330.682 108.625C331.122 110.808 331.73 112.953 332.5 115.042C332.304 115.157 332.111 115.275 331.921 115.408C328.29 117.951 327.13 122.97 329.327 126.618C331.525 130.266 336.252 131.162 339.881 128.619C340.068 128.489 340.242 128.349 340.415 128.206C341.859 129.801 343.434 131.271 345.124 132.602C345.005 132.798 344.887 132.996 344.782 133.204C342.741 137.231 344.094 142.027 347.813 143.915C351.532 145.803 356.203 144.072 358.249 140.042C358.354 139.834 358.445 139.622 358.533 139.414C360.604 139.994 362.72 140.398 364.859 140.622C364.845 140.846 364.835 141.071 364.84 141.297C364.928 145.728 368.44 149.014 372.689 148.635C376.938 148.257 380.299 144.359 380.21 139.928C380.21 139.695 380.186 139.469 380.163 139.245C382.3 138.63 384.387 137.852 386.406 136.917C386.501 137.115 386.602 137.311 386.72 137.501C388.917 141.149 393.642 142.053 397.271 139.502C400.901 136.951 402.062 131.941 399.865 128.291C399.752 128.104 399.628 127.93 399.502 127.757C401.129 126.127 402.635 124.381 404.007 122.532C404.185 122.632 404.367 122.748 404.56 122.846ZM358.202 123.434C344.702 116.579 339.771 99.1703 347.194 84.5495C354.618 69.9287 371.581 63.6355 385.082 70.4907C398.584 77.3458 403.513 94.7545 396.089 109.375C388.666 123.996 371.705 130.289 358.202 123.434Z" fill="#22B8CF"/>
</svg>
