<svg width="662" height="605" viewBox="0 0 662 605" fill="none" xmlns="http://www.w3.org/2000/svg">
<path d="M327.945 604.064C494.851 604.064 630.156 596.165 630.156 586.42C630.156 576.676 494.851 568.776 327.945 568.776C161.038 568.776 25.7334 576.676 25.7334 586.42C25.7334 596.165 161.038 604.064 327.945 604.064Z" fill="#919EAB" fill-opacity="0.08"/>
<path d="M250.772 218.405C257.486 220.532 262.019 226.8 261.938 233.842L259.955 405.255C253.527 457.195 174.114 500.015 150.755 511.549C146.667 513.568 141.999 513.568 137.911 511.548C114.555 500.011 35.1537 457.182 28.726 405.255L26.6396 233.707C26.5548 226.729 31.0019 220.501 37.6293 218.317L137.052 185.543C140.245 184.49 143.689 184.47 146.894 185.486L250.772 218.405Z" fill="#22B8CF"/>
<path opacity="0.48" d="M235.713 230.005C242.428 232.13 246.964 238.397 246.884 245.44L245.163 398.085C239.634 442.78 172.144 479.73 150.776 490.371C146.695 492.404 141.97 492.404 137.889 490.371C116.521 479.73 49.0315 442.78 43.502 398.085L41.6636 245.308C41.5796 238.328 46.0302 232.099 52.6606 229.917L137.354 202.044C140.543 200.994 143.982 200.975 147.183 201.988L235.713 230.005Z" fill="#116E95"/>
<path d="M612.592 160.154H428.696C422.069 160.154 416.696 165.526 416.696 172.154V512.946C416.696 519.573 422.069 524.946 428.696 524.946H612.592C619.22 524.946 624.592 519.573 624.592 512.946V172.154C624.592 165.526 619.22 160.154 612.592 160.154Z" fill="#F4F6F8"/>
<path opacity="0.72" d="M598 174.896H444C437.373 174.896 432 180.269 432 186.896V498.896C432 505.524 437.373 510.896 444 510.896H598C604.627 510.896 610 505.524 610 498.896V186.896C610 180.269 604.627 174.896 598 174.896Z" fill="#DFE3E8"/>
<path d="M434.668 466.744C434.668 466.124 434.914 465.529 435.353 465.091C435.791 464.652 436.386 464.406 437.006 464.406C437.626 464.406 438.221 464.652 438.659 465.091C439.098 465.529 439.344 466.124 439.344 466.744C439.344 467.364 439.098 467.959 438.659 468.397C438.221 468.836 437.626 469.082 437.006 469.082C436.386 469.082 435.791 468.836 435.353 468.397C434.914 467.959 434.668 467.364 434.668 466.744ZM434.668 409.338C434.668 408.718 434.914 408.123 435.353 407.685C435.791 407.246 436.386 407 437.006 407C437.626 407 438.221 407.246 438.659 407.685C439.098 408.123 439.344 408.718 439.344 409.338C439.344 409.958 439.098 410.553 438.659 410.991C438.221 411.43 437.626 411.676 437.006 411.676C436.386 411.676 435.791 411.43 435.353 410.991C434.914 410.553 434.668 409.958 434.668 409.338ZM434.668 351.916C434.668 351.296 434.914 350.702 435.353 350.263C435.791 349.825 436.386 349.578 437.006 349.578C437.626 349.578 438.221 349.825 438.659 350.263C439.098 350.702 439.344 351.296 439.344 351.916C439.344 352.536 439.098 353.131 438.659 353.57C438.221 354.008 437.626 354.254 437.006 354.254C436.386 354.254 435.791 354.008 435.353 353.57C434.914 353.131 434.668 352.536 434.668 351.916ZM434.668 294.495C434.668 293.875 434.914 293.28 435.353 292.842C435.791 292.403 436.386 292.157 437.006 292.157C437.626 292.157 438.221 292.403 438.659 292.842C439.098 293.28 439.344 293.875 439.344 294.495C439.344 295.115 439.098 295.71 438.659 296.148C438.221 296.587 437.626 296.833 437.006 296.833C436.386 296.833 435.791 296.587 435.353 296.148C434.914 295.71 434.668 295.115 434.668 294.495ZM434.668 237.089C434.668 236.469 434.914 235.874 435.353 235.436C435.791 234.997 436.386 234.751 437.006 234.751C437.626 234.751 438.221 234.997 438.659 235.436C439.098 235.874 439.344 236.469 439.344 237.089C439.344 237.709 439.098 238.304 438.659 238.742C438.221 239.181 437.626 239.427 437.006 239.427C436.386 239.427 435.791 239.181 435.353 238.742C434.914 238.304 434.668 237.709 434.668 237.089Z" fill="#C4CDD5"/>
<path d="M601.648 466.744C601.648 466.124 601.895 465.529 602.333 465.091C602.772 464.652 603.366 464.406 603.987 464.406C604.607 464.406 605.201 464.652 605.64 465.091C606.078 465.529 606.325 466.124 606.325 466.744C606.325 467.364 606.078 467.959 605.64 468.397C605.201 468.836 604.607 469.082 603.987 469.082C603.366 469.082 602.772 468.836 602.333 468.397C601.895 467.959 601.648 467.364 601.648 466.744ZM601.648 409.338C601.648 408.718 601.895 408.123 602.333 407.685C602.772 407.246 603.366 407 603.987 407C604.607 407 605.201 407.246 605.64 407.685C606.078 408.123 606.325 408.718 606.325 409.338C606.325 409.958 606.078 410.553 605.64 410.991C605.201 411.43 604.607 411.676 603.987 411.676C603.366 411.676 602.772 411.43 602.333 410.991C601.895 410.553 601.648 409.958 601.648 409.338ZM601.648 351.916C601.648 351.296 601.895 350.702 602.333 350.263C602.772 349.825 603.366 349.578 603.987 349.578C604.607 349.578 605.201 349.825 605.64 350.263C606.078 350.702 606.325 351.296 606.325 351.916C606.325 352.536 606.078 353.131 605.64 353.57C605.201 354.008 604.607 354.254 603.987 354.254C603.366 354.254 602.772 354.008 602.333 353.57C601.895 353.131 601.648 352.536 601.648 351.916ZM601.648 294.495C601.648 293.875 601.895 293.28 602.333 292.842C602.772 292.403 603.366 292.157 603.987 292.157C604.607 292.157 605.201 292.403 605.64 292.842C606.078 293.28 606.325 293.875 606.325 294.495C606.325 295.115 606.078 295.71 605.64 296.148C605.201 296.587 604.607 296.833 603.987 296.833C603.366 296.833 602.772 296.587 602.333 296.148C601.895 295.71 601.648 295.115 601.648 294.495ZM601.648 237.089C601.648 236.469 601.895 235.874 602.333 235.436C602.772 234.997 603.366 234.751 603.987 234.751C604.607 234.751 605.201 234.997 605.64 235.436C606.078 235.874 606.325 236.469 606.325 237.089C606.325 237.709 606.078 238.304 605.64 238.742C605.201 239.181 604.607 239.427 603.987 239.427C603.366 239.427 602.772 239.181 602.333 238.742C601.895 238.304 601.648 237.709 601.648 237.089Z" fill="#C4CDD5"/>
<path d="M302.086 50.8259H230.278L234.191 6.07642H305.999L302.086 50.8259Z" fill="#919EAB"/>
<path d="M303.536 0L301.572 23.3645L299.608 51.4518H230.543L234.471 0H303.536Z" fill="#F4F6F8"/>
<path d="M297.925 7.07869L301.838 51.8282H230.045L226.133 7.07869H232.227L234.363 3.72754H253.706L256.48 7.07869H297.925Z" fill="#C4CDD5"/>
<path d="M413.376 60.8187H336.97V137.225H413.376V60.8187Z" fill="#F4F6F8"/>
<path d="M415.309 60.8187H413.36V137.225H415.309V60.8187Z" fill="#C4CDD5"/>
<path d="M406.299 67.8936H344.015V130.178H406.299V67.8936Z" fill="#DFE3E8"/>
<path d="M344.607 67.8936H344.03V130.178H344.607V67.8936Z" fill="#C4CDD5"/>
<g opacity="0.72">
<path d="M375.749 108.03C382.455 108.03 387.891 101.107 387.891 92.5677C387.891 84.0282 382.455 77.1057 375.749 77.1057C369.043 77.1057 363.607 84.0282 363.607 92.5677C363.607 101.107 369.043 108.03 375.749 108.03Z" fill="#919EAB"/>
<path d="M398.818 130.18H351.933V125.815C351.933 123.842 352.321 121.888 353.076 120.065C353.832 118.242 354.938 116.586 356.334 115.191C357.729 113.795 359.385 112.689 361.208 111.934C363.031 111.178 364.985 110.79 366.958 110.79H383.792C385.765 110.79 387.719 111.178 389.542 111.934C391.365 112.689 393.021 113.795 394.417 115.191C395.812 116.586 396.919 118.242 397.674 120.065C398.429 121.888 398.818 123.842 398.818 125.815V130.18Z" fill="#919EAB"/>
<path d="M350.701 104.181C350.701 106.722 355.377 108.857 355.377 108.857C355.377 108.857 360.053 106.784 360.053 104.181C360.053 102.966 358.354 102.28 357.263 102.623C356.843 102.782 356.46 103.024 356.136 103.334C355.812 103.645 355.554 104.018 355.377 104.431C354.781 103.627 353.993 102.984 353.086 102.56C352.821 102.46 352.537 102.425 352.256 102.458C351.975 102.492 351.706 102.592 351.472 102.751C351.238 102.91 351.046 103.123 350.912 103.372C350.778 103.621 350.705 103.899 350.701 104.181Z" fill="#919EAB"/>
<path d="M392.24 92.8182C392.24 96.1693 398.303 98.8814 398.303 98.8814C398.303 98.8814 404.366 96.1693 404.366 92.8182C404.366 91.2595 402.138 90.3399 400.704 90.7452C399.634 91.1725 398.773 92 398.303 93.052C397.516 91.9979 396.484 91.1524 395.295 90.5893C394.944 90.465 394.568 90.4281 394.199 90.4819C393.831 90.5358 393.481 90.6786 393.18 90.8982C392.879 91.1177 392.636 91.4073 392.472 91.7419C392.308 92.0764 392.229 92.4459 392.24 92.8182Z" fill="#919EAB"/>
</g>
<path d="M182.567 138.02C178.98 138.524 175.324 137.954 172.061 136.38C168.799 134.806 166.076 132.301 164.237 129.179C162.399 126.058 161.527 122.462 161.733 118.846C161.938 115.229 163.211 111.755 165.391 108.862C167.571 105.969 170.56 103.787 173.98 102.593C177.4 101.399 181.097 101.246 184.604 102.153C188.111 103.06 191.27 104.987 193.682 107.69C196.094 110.392 197.65 113.749 198.154 117.336C198.817 122.144 197.549 127.019 194.629 130.894C191.708 134.77 187.371 137.332 182.567 138.02ZM178.842 111.382C177.169 111.632 175.607 112.371 174.353 113.506C173.099 114.641 172.209 116.121 171.795 117.761C171.381 119.401 171.461 121.127 172.025 122.721C172.589 124.316 173.613 125.708 174.966 126.722C176.32 127.736 177.943 128.327 179.632 128.421C181.321 128.514 183 128.106 184.457 127.248C185.915 126.39 187.086 125.119 187.823 123.597C188.56 122.074 188.83 120.368 188.599 118.692C188.445 117.569 188.069 116.488 187.493 115.511C186.918 114.534 186.154 113.68 185.247 113C184.339 112.321 183.306 111.827 182.206 111.55C181.107 111.272 179.963 111.215 178.842 111.382Z" fill="#DFE3E8"/>
<path d="M175.683 65.2578L168.798 66.2193L174.983 110.508L181.868 109.546L175.683 65.2578Z" fill="#DFE3E8"/>
<path d="M181.386 59.2358L168.471 61.0623L169.444 67.9445L182.359 66.118L181.386 59.2358Z" fill="#DFE3E8"/>
<path d="M182.598 68.4337L170.449 70.1282L171.409 77.0132L183.558 75.3187L182.598 68.4337Z" fill="#DFE3E8"/>
<path d="M184.368 80.9296L173.763 82.4088L174.723 89.2939L185.329 87.8147L184.368 80.9296Z" fill="#DFE3E8"/>
<path d="M168.119 293.4C182.489 278.389 180.861 253.51 164.481 237.83C148.102 222.15 123.175 221.608 108.805 236.619C94.4353 251.631 96.064 276.51 112.443 292.19C128.822 307.869 153.749 308.411 168.119 293.4Z" fill="#FA541C"/>
<path d="M168.119 293.4C182.489 278.389 180.861 253.51 164.481 237.83C148.102 222.15 123.175 221.608 108.805 236.619C94.4353 251.631 96.064 276.51 112.443 292.19C128.822 307.869 153.749 308.411 168.119 293.4Z" fill="#22B8CF"/>
<path d="M149.96 264.321C149.629 264.319 149.308 264.213 149.041 264.017C148.775 263.821 148.578 263.545 148.479 263.23C147.852 261.277 146.633 259.567 144.991 258.338C143.349 257.109 141.365 256.422 139.314 256.371C138.901 256.371 138.504 256.207 138.212 255.915C137.92 255.623 137.756 255.226 137.756 254.813C137.756 254.399 137.92 254.003 138.212 253.711C138.504 253.418 138.901 253.254 139.314 253.254C142.026 253.313 144.653 254.216 146.828 255.836C149.004 257.456 150.622 259.713 151.456 262.294C151.519 262.491 151.542 262.698 151.524 262.903C151.506 263.109 151.448 263.308 151.352 263.491C151.256 263.674 151.125 263.836 150.967 263.967C150.808 264.099 150.625 264.198 150.428 264.258C150.276 264.303 150.118 264.324 149.96 264.321Z" fill="#D2FCF4"/>
<path d="M143.118 298.036C139.634 298.021 136.174 297.464 132.861 296.384C132.666 296.322 132.485 296.221 132.328 296.089C132.171 295.956 132.042 295.794 131.948 295.612C131.854 295.43 131.797 295.23 131.78 295.026C131.763 294.822 131.786 294.616 131.848 294.42C131.911 294.225 132.011 294.043 132.144 293.887C132.276 293.73 132.438 293.601 132.62 293.507C132.803 293.413 133.002 293.356 133.206 293.338C133.411 293.321 133.617 293.345 133.812 293.407C143.398 296.524 152.968 294.779 160.076 288.731C163.676 285.558 166.395 281.508 167.971 276.975C169.547 272.442 169.925 267.579 169.069 262.857C169.037 262.652 169.045 262.443 169.093 262.242C169.141 262.04 169.228 261.85 169.35 261.682C169.471 261.514 169.625 261.372 169.801 261.263C169.978 261.154 170.174 261.082 170.379 261.049C170.583 261.016 170.793 261.024 170.994 261.072C171.196 261.12 171.386 261.208 171.554 261.329C171.722 261.451 171.864 261.604 171.973 261.781C172.081 261.957 172.154 262.154 172.187 262.358C173.119 267.605 172.681 273.003 170.914 278.031C169.147 283.058 166.112 287.544 162.102 291.053C156.828 295.603 150.083 298.085 143.118 298.036Z" fill="#D2FCF4"/>
<path d="M127.531 293.966C127.274 293.972 127.021 293.908 126.798 293.779C122.021 291.222 117.876 287.632 114.664 283.269C111.452 278.905 109.256 273.88 108.235 268.559C107.245 263.957 107.292 259.192 108.37 254.609C109.448 250.026 111.531 245.74 114.469 242.062C114.732 241.754 115.105 241.56 115.508 241.522C115.911 241.484 116.313 241.604 116.629 241.858C116.945 242.111 117.15 242.477 117.201 242.879C117.252 243.281 117.144 243.686 116.901 244.01C114.244 247.335 112.364 251.212 111.396 255.356C110.428 259.501 110.397 263.809 111.305 267.967C112.233 272.833 114.237 277.431 117.171 281.422C120.105 285.414 123.895 288.698 128.264 291.035C128.568 291.2 128.81 291.461 128.949 291.778C129.089 292.095 129.119 292.449 129.035 292.785C128.951 293.121 128.758 293.419 128.486 293.633C128.213 293.847 127.877 293.964 127.531 293.966Z" fill="#D2FCF4"/>
<path d="M169.35 258.867C169.006 258.883 168.667 258.784 168.385 258.587C168.103 258.389 167.894 258.104 167.791 257.776C166.358 253.352 164.012 249.278 160.906 245.817C157.799 242.357 154.002 239.586 149.758 237.685C149.377 237.521 149.077 237.214 148.924 236.829C148.771 236.445 148.776 236.015 148.939 235.635C149.103 235.255 149.41 234.955 149.795 234.801C150.179 234.648 150.609 234.653 150.989 234.817C155.641 236.899 159.805 239.933 163.212 243.724C166.619 247.515 169.193 251.978 170.769 256.825C170.889 257.196 170.867 257.598 170.705 257.953C170.543 258.308 170.255 258.59 169.896 258.742C169.723 258.816 169.538 258.859 169.35 258.867Z" fill="#D2FCF4"/>
<path d="M120.158 240.348C119.914 240.351 119.672 240.296 119.452 240.187C119.233 240.079 119.042 239.921 118.896 239.725C118.774 239.56 118.685 239.373 118.636 239.174C118.586 238.975 118.576 238.769 118.607 238.566C118.637 238.363 118.707 238.169 118.813 237.993C118.919 237.817 119.058 237.664 119.223 237.543C124.464 233.773 130.786 231.804 137.241 231.932C137.655 231.932 138.051 232.096 138.343 232.388C138.636 232.68 138.8 233.077 138.8 233.49C138.8 233.904 138.636 234.3 138.343 234.592C138.051 234.885 137.655 235.049 137.241 235.049C131.456 234.924 125.786 236.673 121.078 240.037C120.812 240.236 120.49 240.345 120.158 240.348Z" fill="#D2FCF4"/>
<path d="M144.77 235.918H144.411C142.066 235.371 139.665 235.094 137.257 235.092C136.844 235.092 136.447 234.928 136.155 234.635C135.863 234.343 135.698 233.947 135.698 233.533C135.698 233.12 135.863 232.723 136.155 232.431C136.447 232.139 136.844 231.974 137.257 231.974C139.881 231.982 142.496 232.29 145.05 232.894C145.464 232.942 145.841 233.151 146.1 233.477C146.359 233.803 146.477 234.219 146.43 234.632C146.382 235.045 146.172 235.423 145.847 235.682C145.521 235.94 145.105 236.059 144.692 236.011L144.77 235.918Z" fill="#D2FCF4"/>
<path d="M117.29 273.158C116.972 273.159 116.661 273.063 116.399 272.882C116.137 272.701 115.937 272.444 115.825 272.145C114.365 268.374 113.85 264.303 114.325 260.288C114.8 256.272 116.252 252.434 118.553 249.108C120.732 245.96 123.652 243.396 127.054 241.64C130.457 239.884 134.239 238.991 138.067 239.039C138.481 239.039 138.877 239.203 139.17 239.496C139.462 239.788 139.626 240.184 139.626 240.598C139.626 241.011 139.462 241.408 139.17 241.7C138.877 241.992 138.481 242.156 138.067 242.156C134.737 242.124 131.45 242.909 128.494 244.441C125.538 245.974 123.002 248.208 121.109 250.947C119.106 253.867 117.844 257.23 117.431 260.747C117.018 264.264 117.467 267.828 118.74 271.132C118.881 271.519 118.864 271.945 118.691 272.319C118.519 272.693 118.206 272.983 117.82 273.127C117.647 273.168 117.467 273.178 117.29 273.158Z" fill="#D2FCF4"/>
<path d="M142.011 290.956C137.34 290.797 132.775 289.514 128.705 287.216C124.635 284.917 121.179 281.672 118.631 277.754C118.519 277.582 118.443 277.389 118.405 277.188C118.368 276.986 118.371 276.779 118.414 276.579C118.456 276.378 118.538 276.188 118.654 276.02C118.77 275.851 118.919 275.706 119.091 275.595C119.263 275.483 119.455 275.407 119.656 275.369C119.858 275.332 120.065 275.335 120.265 275.378C120.466 275.42 120.656 275.502 120.825 275.618C120.994 275.734 121.138 275.883 121.249 276.055C123.51 279.545 126.579 282.438 130.196 284.489C133.813 286.54 137.871 287.689 142.027 287.838C142.44 287.838 142.836 288.002 143.129 288.295C143.421 288.587 143.585 288.983 143.585 289.397C143.585 289.81 143.421 290.207 143.129 290.499C142.836 290.791 142.44 290.956 142.027 290.956H142.011Z" fill="#D2FCF4"/>
<path d="M147.825 290.284C147.411 290.334 146.995 290.217 146.668 289.96C146.341 289.703 146.129 289.326 146.079 288.913C146.03 288.499 146.146 288.083 146.403 287.756C146.661 287.429 147.037 287.217 147.451 287.167C160.092 284.05 163.365 272.968 162.336 264.457C160.98 253.359 152.205 242.121 138.068 242.106C137.654 242.106 137.258 241.942 136.965 241.649C136.673 241.357 136.509 240.961 136.509 240.547C136.509 240.134 136.673 239.737 136.965 239.445C137.258 239.153 137.654 238.989 138.068 238.989C154.013 238.989 163.895 251.614 165.407 264.083C166.965 276.942 160.216 287.198 148.261 290.191L147.825 290.284Z" fill="#D2FCF4"/>
<path d="M131.708 250.762C131.351 250.764 131.005 250.644 130.726 250.421C130.448 250.198 130.254 249.887 130.177 249.539C130.101 249.19 130.146 248.826 130.305 248.507C130.465 248.188 130.729 247.933 131.053 247.785C133.431 246.7 136.015 246.142 138.629 246.149C139.042 246.149 139.438 246.313 139.731 246.605C140.023 246.898 140.187 247.294 140.187 247.707C140.187 248.121 140.023 248.517 139.731 248.81C139.438 249.102 139.042 249.266 138.629 249.266C136.477 249.266 134.351 249.728 132.394 250.622C132.178 250.717 131.944 250.765 131.708 250.762Z" fill="#D2FCF4"/>
<path d="M141.715 283.677C137.769 283.614 133.924 282.421 130.636 280.238C127.348 278.056 124.756 274.976 123.166 271.363C119.924 264.334 120.875 256.992 125.691 251.693C125.97 251.387 126.36 251.205 126.773 251.186C127.187 251.167 127.591 251.313 127.897 251.592C128.203 251.871 128.385 252.26 128.404 252.673C128.423 253.087 128.277 253.491 127.998 253.797C126.063 255.988 124.835 258.713 124.476 261.614C124.118 264.516 124.644 267.458 125.988 270.054C127.367 273.201 129.64 275.874 132.524 277.742C135.408 279.609 138.777 280.589 142.213 280.56C144.814 280.538 147.354 279.766 149.527 278.337C151.7 276.907 153.415 274.881 154.465 272.501C155.646 269.682 156.002 266.586 155.491 263.573C154.981 260.559 153.625 257.753 151.581 255.481C151.449 255.324 151.349 255.143 151.287 254.948C151.225 254.753 151.202 254.547 151.219 254.343C151.236 254.139 151.294 253.94 151.388 253.758C151.482 253.576 151.611 253.415 151.768 253.283C152.083 253.021 152.489 252.894 152.898 252.929C153.306 252.964 153.684 253.158 153.95 253.47C156.376 256.18 157.98 259.524 158.576 263.112C159.172 266.7 158.736 270.384 157.317 273.733C156.038 276.66 153.942 279.155 151.279 280.919C148.616 282.683 145.501 283.641 142.307 283.677H141.715Z" fill="#D2FCF4"/>
<path d="M148.292 252.134C147.994 252.133 147.701 252.047 147.451 251.885C144.82 250.187 141.759 249.278 138.629 249.266C138.215 249.266 137.819 249.102 137.526 248.81C137.234 248.517 137.07 248.121 137.07 247.707C137.07 247.294 137.234 246.898 137.526 246.605C137.819 246.313 138.215 246.149 138.629 246.149C142.356 246.162 146.002 247.244 149.134 249.266C149.481 249.49 149.725 249.842 149.812 250.245C149.9 250.648 149.824 251.07 149.602 251.417C149.461 251.637 149.267 251.817 149.038 251.942C148.81 252.068 148.553 252.134 148.292 252.134Z" fill="#D2FCF4"/>
<path d="M140.935 276.665C139.114 276.652 137.318 276.241 135.672 275.46C134.027 274.679 132.573 273.548 131.412 272.144C129.911 270.431 128.938 268.32 128.608 266.067C128.279 263.813 128.609 261.512 129.557 259.441C130.394 257.56 131.764 255.967 133.499 254.858C135.234 253.75 137.256 253.175 139.314 253.207C139.728 253.207 140.124 253.371 140.416 253.663C140.709 253.955 140.873 254.352 140.873 254.765C140.873 255.179 140.709 255.575 140.416 255.867C140.124 256.16 139.728 256.324 139.314 256.324C137.857 256.299 136.425 256.7 135.192 257.478C133.96 258.257 132.982 259.378 132.378 260.704C131.697 262.235 131.468 263.93 131.719 265.587C131.971 267.245 132.692 268.795 133.797 270.056C134.902 271.405 136.367 272.414 138.022 272.965C139.677 273.517 141.454 273.589 143.149 273.173C144.526 272.861 145.785 272.161 146.777 271.155C147.769 270.15 148.451 268.881 148.744 267.5C148.834 267.1 149.077 266.752 149.421 266.53C149.765 266.309 150.183 266.231 150.584 266.315C150.784 266.358 150.975 266.439 151.144 266.556C151.313 266.672 151.457 266.821 151.569 266.993C151.68 267.165 151.757 267.358 151.794 267.56C151.831 267.762 151.827 267.969 151.784 268.17C151.373 270.121 150.412 271.914 149.014 273.337C147.616 274.759 145.841 275.752 143.897 276.197C142.932 276.471 141.938 276.628 140.935 276.665Z" fill="#D2FCF4"/>
<path d="M141.309 270.18C140.896 270.18 140.499 270.016 140.207 269.723C139.915 269.431 139.751 269.034 139.751 268.621C139.751 268.208 139.915 267.811 140.207 267.519C140.499 267.227 140.896 267.062 141.309 267.062C141.522 267.063 141.733 267.02 141.928 266.936C142.124 266.851 142.3 266.728 142.446 266.573C142.592 266.419 142.705 266.236 142.777 266.035C142.85 265.835 142.881 265.623 142.868 265.41C142.878 265.107 142.828 264.806 142.72 264.523C142.613 264.24 142.45 263.981 142.241 263.762C142.031 263.542 141.781 263.367 141.503 263.246C141.225 263.125 140.926 263.061 140.623 263.057C140.395 263.063 140.17 263.114 139.961 263.208C139.752 263.301 139.564 263.435 139.408 263.602C139.245 263.789 139.122 264.007 139.047 264.243C138.972 264.479 138.946 264.727 138.971 264.974C138.984 265.178 138.955 265.384 138.888 265.577C138.821 265.771 138.717 265.95 138.581 266.103C138.445 266.257 138.28 266.382 138.095 266.472C137.911 266.561 137.711 266.614 137.506 266.626C137.093 266.651 136.686 266.51 136.377 266.236C136.067 265.961 135.879 265.574 135.854 265.161C135.798 264.499 135.88 263.833 136.094 263.204C136.307 262.575 136.649 261.998 137.097 261.507C137.545 261.017 138.089 260.624 138.696 260.355C139.303 260.085 139.959 259.943 140.623 259.939C141.336 259.941 142.042 260.085 142.698 260.362C143.355 260.639 143.95 261.044 144.449 261.553C144.948 262.062 145.341 262.665 145.605 263.327C145.868 263.989 145.998 264.698 145.985 265.41C145.998 266.032 145.886 266.65 145.657 267.228C145.427 267.807 145.085 268.333 144.649 268.777C144.214 269.221 143.694 269.574 143.121 269.815C142.547 270.056 141.931 270.18 141.309 270.18Z" fill="#D2FCF4"/>
<path d="M181.476 264.977C183.378 286.69 167.323 304.287 145.626 304.287C145.065 304.287 144.504 304.287 143.943 304.287C164.611 303.227 179.606 286.051 177.766 265.024C176.707 254.731 172.04 245.144 164.592 237.961C157.144 230.778 147.394 226.462 137.069 225.777C137.63 225.777 138.192 225.777 138.753 225.777C160.449 225.699 179.59 243.296 181.476 264.977Z" fill="#FA541C"/>
<path d="M181.476 264.977C183.378 286.69 167.323 304.287 145.626 304.287C145.065 304.287 144.504 304.287 143.943 304.287C164.611 303.227 179.606 286.051 177.766 265.024C176.707 254.731 172.04 245.144 164.592 237.961C157.144 230.778 147.394 226.462 137.069 225.777C137.63 225.777 138.192 225.777 138.753 225.777C160.449 225.699 179.59 243.296 181.476 264.977Z" fill="#063963"/>
<path d="M213.243 73.412C213.286 73.8776 213.354 74.3406 213.445 74.7992C214.034 77.7985 215.569 80.5299 217.825 82.5926C220.396 85.0001 223.779 86.3522 227.302 86.3801H358.994C360.531 86.4091 362.058 86.1326 363.487 85.5669C364.916 85.0012 366.218 84.1574 367.319 83.0845C368.419 82.0116 369.296 80.7309 369.898 79.3167C370.499 77.9025 370.814 76.3828 370.825 74.846C370.825 74.3939 370.825 73.9263 370.825 73.4587C370.464 69.9663 368.838 66.7263 366.255 64.3492C363.671 61.972 360.307 60.6218 356.796 60.5529H225.042C223.392 60.5218 221.754 60.8417 220.237 61.4916C218.72 62.1414 217.359 63.1063 216.243 64.3222C215.127 65.5382 214.283 66.9774 213.766 68.5445C213.248 70.1116 213.07 71.7708 213.243 73.412Z" fill="#FDAB76"/>
<path d="M370.824 74.8163C370.824 75.2337 370.793 75.6505 370.73 76.0632C370.266 72.6523 368.596 69.5203 366.023 67.2333C363.45 64.9463 360.144 63.6553 356.702 63.5938L216.655 63.9055C218.888 61.7312 221.893 60.5316 225.01 60.57H356.687C360.195 60.6456 363.555 61.998 366.138 64.3739C368.72 66.7498 370.347 69.9859 370.715 73.4758C370.773 73.9206 370.809 74.3679 370.824 74.8163Z" fill="#FA541C"/>
<path d="M348.146 66.7417L348.691 72.9764L354.552 70.7942L355.955 73.9116L349.954 75.9067L354.256 81.1906L351.575 83.1857L347.382 77.6836L344.265 83.1857L341.319 81.1906L344.639 75.9067L338.404 73.9116L339.261 70.7942L345.496 72.8985L344.95 66.6638L348.146 66.7417Z" fill="#B3200E"/>
<path d="M312.125 66.7436L312.67 72.9783L318.546 70.7962L319.933 73.9135L313.933 75.9086L318.25 81.1925L315.554 83.1876L311.361 77.6855L308.243 83.1876L305.298 81.1925L308.617 75.9554L302.383 73.9603L303.224 70.843L309.459 72.9472L308.914 66.7125L312.125 66.7436Z" fill="#B3200E"/>
<path d="M276.103 66.7417L276.665 72.9764L282.525 70.7942L283.912 73.9116L277.927 75.9067L282.229 81.1906L279.532 83.1857L275.34 77.6836L272.222 83.1857L269.276 81.1906L272.596 75.9067L266.362 73.9116L267.203 70.7942L273.438 72.8985L272.893 66.6638L276.103 66.7417Z" fill="#B3200E"/>
<path d="M240.036 66.7436L240.582 72.9783L246.442 70.7962L247.845 73.9135L241.844 75.9086L246.271 81.2393L243.59 83.2344L239.397 77.7323L236.28 83.2344L233.318 81.2393L236.654 75.9554L230.419 73.9603L231.276 70.843L237.511 72.9472L236.965 66.7125L240.036 66.7436Z" fill="#B3200E"/>
<path d="M558.302 112.538L551.911 185.484C551.722 187.635 550.778 189.651 549.246 191.173C548.383 192.082 547.347 192.808 546.198 193.309C545.05 193.81 543.812 194.075 542.559 194.088H491.949C490.854 194.094 489.769 193.869 488.767 193.427C487.764 192.986 486.866 192.338 486.131 191.526C485.395 190.714 484.839 189.757 484.499 188.716C484.159 187.674 484.042 186.573 484.156 185.484L490.546 112.585C490.782 110.255 491.865 108.092 493.588 106.506C495.312 104.921 497.557 104.022 499.898 103.981H550.508C551.599 103.975 552.679 104.199 553.678 104.638C554.677 105.076 555.573 105.72 556.308 106.526C557.042 107.333 557.599 108.285 557.943 109.32C558.286 110.356 558.409 111.452 558.302 112.538Z" fill="#FEE9D1"/>
<path d="M495.144 124.287H495.02C494.608 124.251 494.228 124.054 493.962 123.738C493.697 123.423 493.567 123.015 493.601 122.603L494.178 115.932C494.213 115.544 494.393 115.182 494.681 114.92C494.97 114.657 495.346 114.512 495.737 114.514H502.766C503.18 114.514 503.576 114.678 503.868 114.97C504.161 115.263 504.325 115.659 504.325 116.072C504.325 116.486 504.161 116.882 503.868 117.175C503.576 117.467 503.18 117.631 502.766 117.631H497.217L496.765 122.868C496.73 123.268 496.541 123.638 496.239 123.903C495.937 124.167 495.545 124.304 495.144 124.287Z" fill="#FA541C"/>
<path d="M551.771 124.287C551.36 124.251 550.979 124.054 550.713 123.738C550.448 123.423 550.318 123.015 550.352 122.603L550.789 117.631H545.442C545.029 117.631 544.633 117.467 544.34 117.175C544.048 116.882 543.884 116.486 543.884 116.072C543.884 115.659 544.048 115.263 544.34 114.97C544.633 114.678 545.029 114.514 545.442 114.514H552.488C552.705 114.513 552.92 114.557 553.118 114.644C553.317 114.731 553.496 114.859 553.643 115.019C553.789 115.179 553.901 115.368 553.971 115.573C554.04 115.779 554.066 115.997 554.046 116.213L553.329 122.853C553.298 123.244 553.12 123.609 552.831 123.875C552.542 124.141 552.163 124.288 551.771 124.287Z" fill="#FA541C"/>
<path d="M497.778 174.573H490.749C490.532 174.575 490.318 174.531 490.119 174.445C489.921 174.36 489.742 174.233 489.595 174.075C489.449 173.916 489.338 173.729 489.268 173.525C489.199 173.321 489.172 173.105 489.19 172.89L489.782 166.219C489.8 166.014 489.857 165.815 489.952 165.633C490.046 165.45 490.175 165.288 490.333 165.156C490.49 165.023 490.671 164.923 490.867 164.861C491.063 164.798 491.269 164.775 491.473 164.793C491.678 164.81 491.877 164.868 492.06 164.962C492.242 165.056 492.404 165.186 492.537 165.343C492.669 165.5 492.769 165.682 492.832 165.877C492.894 166.073 492.917 166.279 492.9 166.484L492.463 171.456H497.794C498.207 171.456 498.604 171.62 498.896 171.913C499.188 172.205 499.353 172.601 499.353 173.015C499.353 173.428 499.188 173.825 498.896 174.117C498.604 174.409 498.207 174.573 497.794 174.573H497.778Z" fill="#FA541C"/>
<path d="M547.422 174.572H540.377C539.964 174.572 539.567 174.407 539.275 174.115C538.983 173.823 538.818 173.426 538.818 173.013C538.818 172.6 538.983 172.203 539.275 171.911C539.567 171.618 539.964 171.454 540.377 171.454H545.988L546.456 166.217C546.492 165.806 546.689 165.426 547.004 165.16C547.32 164.894 547.728 164.764 548.139 164.799C548.55 164.834 548.93 165.032 549.196 165.347C549.462 165.663 549.592 166.071 549.558 166.482L548.965 173.153C548.93 173.539 548.753 173.898 548.468 174.16C548.182 174.423 547.81 174.569 547.422 174.572Z" fill="#FA541C"/>
<path d="M542.046 149.459C545.565 135.814 539.525 122.459 528.555 119.63C517.586 116.801 505.84 125.57 502.322 139.215C498.803 152.861 504.843 166.216 515.813 169.045C526.782 171.873 538.528 163.105 542.046 149.459Z" fill="#FDAB76"/>
<path d="M551.911 185.484C551.722 187.636 550.778 189.651 549.246 191.173C548.383 192.082 547.347 192.809 546.198 193.309C545.05 193.81 543.812 194.075 542.559 194.088H491.949C490.854 194.094 489.769 193.869 488.767 193.428C487.764 192.986 486.866 192.339 486.131 191.527C485.395 190.715 484.839 189.757 484.499 188.716C484.159 187.675 484.042 186.574 484.156 185.484C484.156 185.484 507.427 178.127 510.295 178.127H528.266L551.911 185.484Z" fill="#FDAB76"/>
<path d="M571.613 268.092L567.716 312.514C567.518 314.479 566.605 316.302 565.151 317.638C563.697 318.974 561.803 319.73 559.829 319.762C558.901 319.779 557.98 319.597 557.128 319.23C556.275 318.863 555.511 318.318 554.886 317.633C554.26 316.947 553.788 316.135 553.501 315.253C553.214 314.37 553.118 313.437 553.22 312.514L557.101 268.092C557.462 264.78 557.114 261.428 556.081 258.261C555.047 255.093 553.351 252.182 551.106 249.72C548.861 247.258 546.118 245.302 543.058 243.982C539.999 242.662 536.694 242.007 533.363 242.062H517.48C510.396 242.193 503.605 244.913 498.39 249.709C493.175 254.504 489.897 261.044 489.174 268.092L487.616 286.235H473.104L474.663 268.092C476.627 245.741 496.391 227.566 518.742 227.566H534.625C556.977 227.566 573.592 245.678 571.613 268.092Z" fill="#FDAB76"/>
<path d="M572.657 310.831L565.082 397.462C564.807 400.143 563.56 402.631 561.575 404.455C559.591 406.279 557.006 407.312 554.311 407.359H467.742C466.474 407.382 465.216 407.135 464.051 406.634C462.886 406.133 461.841 405.389 460.986 404.453C460.131 403.517 459.485 402.409 459.091 401.203C458.697 399.998 458.565 398.723 458.702 397.462L466.277 310.893C466.432 309.149 467 307.467 467.936 305.987C468.871 304.507 470.146 303.271 471.655 302.383C473.279 301.388 475.142 300.849 477.048 300.824H563.616C565.379 300.817 567.108 301.309 568.604 302.243C570.014 303.153 571.14 304.44 571.856 305.958C572.572 307.476 572.85 309.164 572.657 310.831Z" fill="#FA541C"/>
<path d="M128.357 181.226H72.0264C69.4199 181.175 66.922 180.172 65.004 178.406C63.086 176.641 61.8804 174.234 61.6145 171.64L56.6891 115.341C56.5485 114.116 56.6721 112.874 57.0516 111.7C57.4311 110.527 58.0577 109.448 58.8892 108.537C59.7207 107.625 60.7378 106.903 61.872 106.418C63.0062 105.933 64.2311 105.696 65.4644 105.724H121.764C124.375 105.776 126.877 106.784 128.796 108.556C130.714 110.328 131.917 112.742 132.176 115.341L137.163 171.64C137.3 172.866 137.172 174.107 136.788 175.279C136.405 176.451 135.775 177.528 134.94 178.436C134.106 179.344 133.086 180.063 131.951 180.545C130.815 181.026 129.59 181.258 128.357 181.226Z" fill="#FEE9D1"/>
<path d="M61.6455 149.148C61.6455 149.148 81.6589 121.263 96.4195 121.98C111.18 122.697 135.605 148.493 135.605 148.493C135.605 148.493 99.5369 167.446 61.6455 149.148Z" fill="#FDAB76"/>
<path d="M62.3472 149.632L61.0847 148.728C61.8952 147.59 81.0046 121.217 95.9367 121.217H96.529C111.43 121.934 135.293 146.904 136.306 147.964L135.168 149.04C134.857 148.775 110.666 123.446 96.3731 122.76H95.8432C81.7216 122.745 62.4719 149.336 62.3472 149.632Z" fill="#770508"/>
<path d="M59.5572 150.129C56.5333 150.129 52.6211 149.006 51.2339 144.736C51.2021 144.633 51.1909 144.526 51.2007 144.419C51.2106 144.312 51.2414 144.209 51.2913 144.114C51.3412 144.019 51.4093 143.935 51.4917 143.866C51.5742 143.798 51.6693 143.746 51.7716 143.715C51.8739 143.683 51.9815 143.672 52.0882 143.682C52.1949 143.691 52.2986 143.722 52.3934 143.772C52.4882 143.822 52.5723 143.89 52.6408 143.973C52.7092 144.055 52.7608 144.15 52.7925 144.252C54.585 149.77 61.2717 148.445 61.5523 148.383C61.7563 148.345 61.9671 148.387 62.1411 148.5C62.3151 148.613 62.439 148.789 62.4875 148.991C62.5247 149.193 62.4822 149.402 62.3688 149.573C62.2555 149.745 62.0802 149.865 61.8796 149.91C61.1147 150.061 60.3367 150.134 59.5572 150.129Z" fill="#770508"/>
<path d="M71.4501 138.159C71.2809 138.163 71.1156 138.108 70.9825 138.003C70.7487 137.816 65.2154 133.546 63.797 129.197C63.7372 129 63.7558 128.789 63.8487 128.605C63.9417 128.422 64.1019 128.282 64.2957 128.215C64.4921 128.151 64.7058 128.168 64.8899 128.261C65.074 128.355 65.2135 128.517 65.2777 128.714C66.5402 132.595 71.8709 136.725 71.9332 136.756C72.0896 136.887 72.1908 137.072 72.2168 137.274C72.2428 137.477 72.1917 137.681 72.0735 137.847C72.0001 137.943 71.9058 138.021 71.7978 138.075C71.6898 138.129 71.5708 138.158 71.4501 138.159Z" fill="#770508"/>
<path d="M82.9062 127.547C82.8039 127.545 82.7029 127.523 82.6091 127.482C82.5154 127.441 82.4306 127.381 82.3596 127.308C82.2887 127.234 82.233 127.147 82.1958 127.051C82.1585 126.956 82.1404 126.854 82.1425 126.752C81.2179 123.361 80.0884 120.03 78.7601 116.776C78.3549 115.748 78.0899 114.999 78.0276 114.812C77.9685 114.614 77.9893 114.4 78.0853 114.217C78.1814 114.034 78.3452 113.895 78.5419 113.83C78.6401 113.8 78.7436 113.789 78.846 113.799C78.9485 113.809 79.0478 113.84 79.1381 113.889C79.2283 113.939 79.3077 114.006 79.3713 114.087C79.4349 114.168 79.4815 114.261 79.5083 114.36C79.5083 114.547 79.8356 115.233 80.2097 116.215C82.3763 121.936 83.7167 125.692 83.7011 126.783C83.6931 126.988 83.6058 127.183 83.4576 127.325C83.3093 127.468 83.1117 127.547 82.9062 127.547Z" fill="#770508"/>
<path d="M96.4198 122.764C96.2235 122.764 96.0342 122.691 95.8897 122.558C95.7452 122.425 95.6562 122.242 95.6405 122.047L94.5338 109.577C94.5253 109.475 94.5371 109.372 94.5686 109.274C94.6001 109.176 94.6506 109.086 94.7172 109.007C94.7838 108.929 94.8653 108.865 94.9569 108.818C95.0485 108.772 95.1483 108.744 95.2508 108.736C95.3528 108.723 95.4564 108.731 95.555 108.76C95.6537 108.788 95.7454 108.837 95.8244 108.903C95.9034 108.969 95.9679 109.05 96.0141 109.142C96.0602 109.234 96.0869 109.334 96.0925 109.437L97.1836 122C97.1943 122.102 97.1845 122.204 97.1548 122.302C97.1252 122.4 97.0762 122.491 97.0108 122.569C96.9454 122.648 96.8649 122.712 96.7741 122.759C96.6833 122.806 96.584 122.834 96.4822 122.842L96.4198 122.764Z" fill="#770508"/>
<path d="M137.99 149.273C137.227 149.275 136.466 149.213 135.714 149.086C135.514 149.041 135.338 148.92 135.225 148.748C135.112 148.577 135.069 148.368 135.106 148.166C135.125 148.065 135.164 147.968 135.22 147.882C135.277 147.796 135.351 147.723 135.437 147.666C135.522 147.609 135.619 147.57 135.72 147.552C135.822 147.533 135.926 147.535 136.026 147.558C136.026 147.558 139.829 148.291 142.167 146.639C142.669 146.275 143.089 145.81 143.398 145.272C143.707 144.735 143.898 144.138 143.96 143.521C143.975 143.419 144.01 143.321 144.064 143.232C144.117 143.143 144.187 143.066 144.271 143.004C144.354 142.943 144.448 142.898 144.549 142.873C144.649 142.848 144.753 142.843 144.856 142.859C144.958 142.874 145.057 142.909 145.145 142.963C145.234 143.016 145.311 143.086 145.373 143.17C145.434 143.253 145.479 143.347 145.504 143.448C145.529 143.548 145.534 143.653 145.518 143.755C145.427 144.576 145.163 145.368 144.744 146.08C144.325 146.792 143.76 147.407 143.087 147.885C141.568 148.854 139.79 149.338 137.99 149.273Z" fill="#770508"/>
<path d="M124.008 137.334C123.847 137.339 123.688 137.294 123.554 137.205C123.419 137.116 123.316 136.987 123.258 136.836C123.199 136.686 123.189 136.521 123.229 136.364C123.269 136.208 123.356 136.068 123.479 135.963C123.479 135.963 128.155 131.848 128.669 128.014C128.7 127.807 128.812 127.621 128.98 127.497C129.148 127.373 129.358 127.32 129.565 127.351C129.772 127.382 129.958 127.494 130.082 127.662C130.206 127.83 130.259 128.041 130.228 128.247C129.557 132.643 124.694 136.96 124.523 137.163C124.377 137.28 124.195 137.341 124.008 137.334Z" fill="#770508"/>
<path d="M110.822 128.277H110.666C110.565 128.26 110.468 128.223 110.381 128.168C110.293 128.114 110.218 128.042 110.158 127.958C110.099 127.874 110.057 127.779 110.034 127.679C110.012 127.578 110.009 127.474 110.027 127.373C110.027 127.279 111.742 117.257 112.038 115.2C112.073 114.997 112.184 114.815 112.35 114.693C112.516 114.571 112.722 114.518 112.926 114.545C113.028 114.56 113.125 114.595 113.213 114.648C113.301 114.701 113.377 114.771 113.438 114.854C113.499 114.936 113.543 115.03 113.567 115.129C113.592 115.229 113.597 115.332 113.581 115.434C113.269 117.507 111.586 127.544 111.57 127.638C111.533 127.812 111.44 127.969 111.304 128.084C111.169 128.199 111 128.267 110.822 128.277Z" fill="#770508"/>
<path d="M111.291 152.406C117.744 145.665 117.006 134.487 109.644 127.439C102.281 120.391 91.0819 120.142 84.6291 126.882C78.1763 133.623 78.9138 144.801 86.2763 151.849C93.6388 158.897 104.838 159.146 111.291 152.406Z" fill="#FA541C"/>
<path opacity="0.24" d="M105.257 139.641C105.296 139.247 105.296 138.85 105.257 138.456C105.055 136.416 104.109 134.521 102.6 133.133C101.091 131.745 99.1244 130.96 97.0742 130.928C96.1142 130.911 95.1616 131.099 94.2798 131.479C93.398 131.859 92.6072 132.422 91.9599 133.131C91.3126 133.841 90.8237 134.679 90.5258 135.592C90.2278 136.505 90.1275 137.471 90.2316 138.425C90.2728 138.825 90.3457 139.221 90.4499 139.61H80.3029C80.0591 137.363 80.2964 135.091 80.9992 132.943C81.7019 130.795 82.854 128.822 84.3787 127.154C85.9034 125.487 87.7658 124.163 89.8419 123.271C91.918 122.379 94.1603 121.939 96.4196 121.981C101.225 122.07 105.832 123.916 109.37 127.17C112.908 130.423 115.132 134.859 115.622 139.641H105.257Z" fill="black"/>
<path opacity="0.24" d="M105.242 138.458C105.281 138.852 105.281 139.249 105.242 139.643C105.115 141.363 104.332 142.968 103.056 144.128C101.78 145.288 100.108 145.914 98.3837 145.878C96.5597 145.849 94.7953 145.224 93.36 144.098C91.9246 142.972 90.8971 141.408 90.4345 139.643C90.3303 139.255 90.2574 138.858 90.2163 138.458C90.1072 137.5 90.2043 136.53 90.501 135.612C90.7977 134.694 91.2873 133.851 91.9368 133.138C92.5862 132.425 93.3807 131.859 94.2668 131.478C95.1529 131.097 96.1102 130.91 97.0744 130.93C99.1219 130.966 101.085 131.752 102.591 133.14C104.096 134.528 105.04 136.421 105.242 138.458Z" fill="black"/>
<path d="M368.424 212.929L368.969 213.568L369.686 214.394C370.201 214.94 370.699 215.516 371.245 216.046C372.305 217.169 373.474 218.26 374.658 219.366C377.031 221.549 379.518 223.605 382.109 225.523C384.743 227.487 387.502 229.279 390.292 231.056C391.851 231.898 393.129 232.786 394.594 233.597L397.976 235.467C398.467 235.686 399.021 235.719 399.535 235.561C400.61 235.234 406.892 229.03 408.887 226.723C413.298 221.658 420.016 214.986 423.616 209.313L427.731 214.877C425.211 221.828 421.851 228.444 417.725 234.579C415.49 237.892 412.816 240.886 409.775 243.479C407.942 245.019 405.874 246.256 403.65 247.142C400.842 248.264 397.757 248.498 394.812 247.812C394.045 247.624 393.294 247.374 392.568 247.064L391.18 246.456L388.655 245.303C386.941 244.554 385.304 243.65 383.652 242.824C380.351 241.058 377.146 239.117 374.051 237.011C370.934 234.871 367.947 232.55 365.104 230.059C363.545 228.765 362.283 227.456 360.942 226.037C360.256 225.331 359.586 224.598 358.931 223.84L357.949 222.655C357.607 222.219 357.342 221.891 356.843 221.221L368.424 212.929Z" fill="#FDBAB9"/>
<path d="M423.07 210.175L430.303 194.712L437.207 207.088C437.207 207.088 432.687 214.882 427.746 214.882L423.07 210.175Z" fill="#FDBAB9"/>
<path d="M438.455 188.289L445.749 197.672L437.208 207.071L430.303 194.711L438.455 188.289Z" fill="#FDBAB9"/>
<path d="M435.914 211.343H447.339C447.666 211.348 447.981 211.228 448.222 211.008C448.462 210.788 448.609 210.484 448.633 210.159L451.049 182.617C451.064 182.438 451.042 182.258 450.984 182.088C450.926 181.919 450.833 181.763 450.711 181.631C450.589 181.499 450.442 181.394 450.277 181.322C450.113 181.25 449.935 181.213 449.755 181.214H438.268C437.944 181.217 437.632 181.339 437.393 181.558C437.155 181.777 437.005 182.076 436.974 182.399L434.574 209.925C434.559 210.108 434.582 210.293 434.643 210.467C434.704 210.641 434.801 210.8 434.927 210.934C435.054 211.068 435.207 211.173 435.377 211.244C435.547 211.314 435.73 211.348 435.914 211.343Z" fill="#FA541C"/>
<path d="M435.291 205.09L437.333 204.046C438.367 203.516 439.321 202.844 440.169 202.05L440.559 200.694C440.34 200.33 440.01 200.047 439.616 199.887C439.223 199.726 438.788 199.698 438.377 199.806L436.678 200.274L428.261 200.913L428.043 204.466L430.506 208.285H431.363C432.293 208.317 433.204 208.012 433.926 207.424C434.648 206.837 435.133 206.007 435.291 205.09Z" fill="#FDBAB9"/>
<path d="M353.819 197.829C359.664 196.769 400.891 232.509 400.891 232.509L388.671 250.434C388.671 250.434 343.579 219.042 345.028 211.467C346.338 203.564 345.231 199.372 353.819 197.829Z" fill="#116E95"/>
<path opacity="0.24" d="M358.947 209.313L358.511 228.017C363.187 231.649 380.083 244.601 380.083 244.601L358.947 209.313Z" fill="#063963"/>
<path d="M326.262 569.336L340.103 570.692L344.483 538.63L330.657 537.274L326.262 569.336Z" fill="#FDBAB9"/>
<path d="M190.158 381.205L186.604 394.672L216.531 407.562L222.719 393.893L190.158 381.205Z" fill="#FDBAB9"/>
<path d="M349.985 573.465C351.175 573.622 352.383 573.357 353.398 572.717C353.623 572.528 353.799 572.288 353.91 572.016C354.022 571.745 354.065 571.45 354.037 571.158C354.029 570.978 353.977 570.802 353.884 570.647C353.792 570.492 353.662 570.362 353.507 570.27C351.824 569.272 346.182 571.953 345.543 572.249C345.487 572.285 345.441 572.333 345.409 572.39C345.376 572.447 345.358 572.511 345.355 572.577C345.368 572.644 345.4 572.706 345.447 572.756C345.494 572.805 345.554 572.84 345.62 572.857C347.054 573.191 348.515 573.395 349.985 573.465ZM352.51 570.675C352.722 570.66 352.934 570.709 353.118 570.815C353.186 570.846 353.243 570.897 353.282 570.961C353.321 571.025 353.34 571.099 353.336 571.174C353.358 571.37 353.333 571.569 353.263 571.753C353.192 571.938 353.078 572.102 352.931 572.234C352.058 572.951 349.813 573.013 346.696 572.421C348.534 571.503 350.517 570.907 352.557 570.659L352.51 570.675Z" fill="#FA541C"/>
<path d="M345.699 572.859H345.808C347.507 572.157 350.873 569.258 350.655 567.668C350.598 567.393 350.447 567.147 350.228 566.971C350.009 566.795 349.736 566.7 349.455 566.702C349.128 566.641 348.792 566.652 348.469 566.733C348.146 566.813 347.845 566.962 347.585 567.17C345.808 568.557 345.371 572.313 345.34 572.454C345.325 572.568 345.352 572.685 345.418 572.781C345.457 572.812 345.502 572.835 345.55 572.848C345.599 572.862 345.649 572.865 345.699 572.859ZM349.143 567.357H349.346C349.938 567.45 349.969 567.684 349.969 567.762C350.11 568.713 347.818 571.02 346.088 571.939C346.249 570.361 346.909 568.875 347.974 567.7C348.307 567.442 348.724 567.319 349.143 567.357Z" fill="#FA541C"/>
<path d="M339.417 565.111L326.948 565.641C326.677 565.644 326.416 565.748 326.217 565.932C326.018 566.117 325.895 566.369 325.872 566.639L322.88 584.034C322.863 584.33 322.905 584.626 323.003 584.906C323.102 585.186 323.255 585.443 323.453 585.664C323.652 585.884 323.892 586.063 324.16 586.19C324.428 586.317 324.719 586.389 325.015 586.403H325.28C330.72 586.122 333.338 585.717 340.228 585.483C344.436 585.343 357.373 586.871 363.14 585.561C368.907 584.252 367.816 578.532 365.338 578.578C357.326 578.734 348.083 573.513 343.516 567.403C342.69 566.888 340.274 565.065 339.417 565.111Z" fill="#063963"/>
<path d="M192.964 396.433L199.323 385.631C199.465 385.404 199.518 385.131 199.472 384.867C199.426 384.602 199.284 384.364 199.074 384.197L186.074 372.242C185.594 371.898 184.997 371.758 184.413 371.851C183.829 371.944 183.306 372.264 182.957 372.741C182.896 372.804 182.848 372.878 182.817 372.959C180.104 377.635 179.013 380.098 175.475 386.021C173.309 389.637 164.97 399.722 163.006 405.224C161.042 410.726 166.357 413.017 167.682 410.866C171.906 404.039 181.289 399.114 188.942 398.537C189.706 398.241 192.543 397.197 192.964 396.433Z" fill="#063963"/>
<path d="M362.578 214.331C370.481 227.767 360.817 239.114 352.759 279.25L300.652 279.39C301.509 257.756 301.416 240.268 292.173 197.7C291.969 196.779 291.948 195.827 292.113 194.898C292.277 193.969 292.624 193.081 293.132 192.286C293.64 191.491 294.3 190.804 295.075 190.265C295.849 189.726 296.722 189.344 297.644 189.143C298.154 189.021 298.678 188.963 299.203 188.972C303.52 188.972 308.929 189.128 314.415 189.673C323.094 190.383 331.713 191.69 340.211 193.585C344.825 194.698 349.36 196.114 353.787 197.825C356.421 198.729 359.664 206.024 362.578 214.331Z" fill="#116E95"/>
<path d="M354.692 281.963C354.692 281.963 383.933 366.552 383.231 407.233C382.826 430.614 381.08 473.96 374.051 504.495C368.315 529.434 344.935 545.332 344.935 545.332L326.231 544.225C326.231 544.225 316.115 506.194 317.876 491.059C321.367 460.93 331.764 438.298 330.517 410.631C328.522 365.336 315.117 281.261 315.117 281.261L354.692 281.963Z" fill="#FA541C"/>
<path opacity="0.24" d="M325.763 452.855C325.763 452.855 325.763 452.7 325.903 452.715C342.503 454.274 353.959 430.379 351.247 397.663L342.425 314.274L325.763 452.855Z" fill="#770508"/>
<path d="M341.568 281.263C341.568 281.263 364.808 430.007 316.411 446.747C290.911 456.411 269.433 445.937 244.026 434.683C229.328 428.184 210.967 410.586 210.967 410.586L218.028 391.368C230.727 387.933 244.015 387.264 256.994 389.404C281.793 393.238 282.822 400.314 291.644 394.984C310.145 349.205 278.286 313.029 299.936 281.201L341.568 281.263Z" fill="#FA541C"/>
<path d="M215.549 253.316C213.196 256.792 201.256 254.438 201.256 254.438L198.731 239.646L213.383 245.522L215.549 253.316Z" fill="#FDBAB9"/>
<path d="M201.662 238.885L203.953 254.254L195.131 255.563C194.654 255.603 194.18 255.466 193.797 255.179C193.415 254.891 193.152 254.473 193.058 254.004L189.691 243C189.634 242.744 189.679 242.476 189.815 242.252C189.952 242.028 190.17 241.866 190.424 241.8L201.662 238.885Z" fill="#FDBAB9"/>
<path d="M197.734 245.851L202.768 246.74L207.444 243.17L205.605 241.861C204.365 240.971 203.494 239.656 203.158 238.167C202.797 236.606 202.583 235.014 202.519 233.413V232.883C202.459 232.413 202.247 231.976 201.915 231.638C201.582 231.3 201.149 231.08 200.68 231.013L199.433 231.932C198.638 233.631 199.199 235.611 199.106 236.935L198.903 239.507L196.892 240.38L197.734 245.851Z" fill="#FDBAB9"/>
<path d="M294.699 194.834L265.209 235.36L211.014 246.005V254.89C211.014 254.89 261.92 258.662 273.36 252.006C284.801 245.351 303.942 204.966 303.942 204.966L294.699 194.834Z" fill="#FDBAB9"/>
<path d="M294.355 116.898C281.979 112.752 267.624 120.436 261.95 132.188C256.277 143.941 258.272 158.358 264.647 169.737C266.564 173.181 268.871 176.423 270.43 180.024C272.188 183.591 272.57 187.68 271.505 191.511C270.243 195.237 268.918 197.621 264.304 197.029C264.304 197.029 264.304 194.473 266.065 194.785C266.065 194.785 262.34 196.858 260.875 195.502C262.558 198.12 267.11 197.169 268.544 194.395C270.726 190.264 266.72 184.669 262.044 184.715C257.368 184.762 253.58 189.501 253.721 194.161C253.917 196.491 254.747 198.724 256.121 200.617C257.494 202.509 259.359 203.991 261.514 204.9C260.251 205.103 258.956 204.885 257.83 204.279C256.703 203.674 255.807 202.714 255.279 201.549C257.399 207.098 264.335 209.545 270.165 208.454C275.994 207.363 280.966 203.622 285.533 199.835C291.768 194.722 298.143 188.254 298.003 180.258C297.862 174.288 294.028 169.16 290.801 164.125C287.575 159.091 284.754 152.95 286.796 147.354C288.541 142.678 293.233 139.732 297.395 136.833C300.387 134.76 306.451 130.131 305.734 125.751C305.017 121.574 297.847 118.004 294.355 116.898Z" fill="#063963"/>
<path d="M266.534 255.626L258.366 234.007L260.237 234.163C261.749 234.286 263.266 233.972 264.605 233.259C265.945 232.547 267.053 231.464 267.796 230.141C274.031 219.043 290.132 190.878 294.668 189.475C301.136 187.558 307.792 192.733 310.254 200.386C312.094 206.013 293.109 230.141 284.334 243.858C276.525 255.953 266.534 255.626 266.534 255.626Z" fill="#116E95"/>
<path d="M186.792 403.54V403.696C186.907 403.996 187.095 404.262 187.341 404.469C187.586 404.676 187.88 404.817 188.195 404.88C188.383 404.941 188.585 404.952 188.779 404.911C188.973 404.87 189.153 404.779 189.301 404.647C190.626 403.446 189.784 398.412 189.706 397.913C189.696 397.849 189.666 397.79 189.622 397.743C189.578 397.696 189.52 397.663 189.457 397.648C189.394 397.639 189.33 397.646 189.27 397.668C189.21 397.69 189.157 397.726 189.114 397.773C188.054 399.285 186.371 401.95 186.792 403.54ZM189.192 398.864C189.488 400.859 189.597 403.54 188.88 404.195C188.811 404.249 188.729 404.285 188.641 404.299C188.554 404.313 188.464 404.304 188.382 404.273C188.17 404.233 187.973 404.141 187.806 404.005C187.64 403.868 187.511 403.693 187.431 403.493C187.166 402.652 187.743 400.937 189.192 398.911V398.864Z" fill="#FA541C"/>
<path d="M189.161 398.585C189.581 400.269 191.156 403.152 192.559 403.479C192.816 403.529 193.083 403.492 193.317 403.373C193.551 403.255 193.74 403.062 193.852 402.825C193.959 402.595 194.015 402.345 194.015 402.092C194.015 401.839 193.959 401.589 193.852 401.36C193.213 399.427 189.535 397.837 189.379 397.759C189.329 397.732 189.272 397.718 189.215 397.718C189.158 397.718 189.102 397.732 189.051 397.759C189.011 397.8 188.979 397.849 188.958 397.902C188.937 397.956 188.926 398.013 188.927 398.071C188.995 398.246 189.074 398.418 189.161 398.585ZM193.4 401.703C193.439 401.839 193.448 401.982 193.427 402.121C193.405 402.261 193.353 402.395 193.276 402.513C193.073 402.887 192.87 402.887 192.714 402.856C191.748 402.669 190.298 400.315 189.831 398.679C191.031 399.287 192.948 400.424 193.353 401.609V401.703H193.4Z" fill="#FA541C"/>
<path d="M300.465 276.757L299.031 281.823C298.829 282.213 299.296 282.618 299.951 282.603H353.709C353.914 282.634 354.124 282.593 354.303 282.488C354.481 282.383 354.619 282.22 354.691 282.026L355.19 276.96C355.19 276.617 354.769 276.305 354.208 276.321H301.385C301.207 276.306 301.028 276.339 300.866 276.415C300.705 276.492 300.566 276.61 300.465 276.757Z" fill="#FDAB76"/>
<path d="M310.737 283.085H309.178C308.882 283.085 308.648 282.929 308.68 282.742L309.381 276.149C309.381 275.962 309.662 275.806 309.973 275.806H311.532C311.828 275.806 312.077 275.962 312.046 276.165L311.345 282.742C311.298 282.914 311.033 283.085 310.737 283.085Z" fill="#FA541C"/>
<path d="M349.548 283.073H347.99C347.694 283.073 347.46 282.917 347.475 282.73L348.177 276.152C348.177 275.95 348.473 275.794 348.769 275.794H350.328C350.624 275.794 350.858 275.95 350.842 276.137L350.141 282.714C350.125 282.917 349.86 283.073 349.548 283.073Z" fill="#FA541C"/>
<path d="M331.779 283.042H330.22C329.924 283.042 329.69 282.887 329.722 282.7L330.423 276.122C330.423 275.919 330.704 275.763 331 275.763H332.558C332.854 275.763 333.104 275.919 333.073 276.106L332.371 282.684C332.34 282.887 332.091 283.042 331.779 283.042Z" fill="#FA541C"/>
<path d="M316.816 161.304C318.468 169.799 320.089 185.137 314.338 189.75C314.338 189.75 316.629 198.463 332.044 200.786C349.065 203.357 340.134 193.663 340.134 193.663C330.875 189.984 331.094 183.282 332.699 177.109L316.816 161.304Z" fill="#FDBAB9"/>
<path d="M314.385 189.674C322.6 190.195 330.764 191.331 338.809 193.072L350.483 196.548C352.557 200.725 349.159 209.314 339.386 210.95C339.386 210.95 314.805 214.333 307.558 189.02L314.385 189.674Z" fill="#FDBAB9"/>
<path opacity="0.24" d="M323.285 167.777L332.637 177.129C332.245 178.578 331.984 180.059 331.857 181.555C328.319 180.511 322.614 176.599 322.225 172.858C322.23 171.11 322.59 169.381 323.285 167.777Z" fill="black"/>
<path d="M306.419 150.582C310.581 163.769 312.062 169.442 320.603 174.632C333.369 182.426 348.659 174.445 348.519 160.293C348.394 147.543 341.614 128.122 327.119 126.002C323.937 125.528 320.687 125.876 317.677 127.012C314.668 128.148 311.999 130.035 309.925 132.494C307.85 134.953 306.439 137.901 305.826 141.059C305.212 144.217 305.417 147.479 306.419 150.535V150.582Z" fill="#FDBAB9"/>
<path d="M337.874 148.525C339.358 150.836 341.152 152.934 343.205 154.759C342.724 155.278 342.136 155.686 341.482 155.955C340.828 156.224 340.124 156.348 339.417 156.318L337.874 148.525Z" fill="#FF928E"/>
<path d="M336.392 163.367C336.919 163.306 337.44 163.207 337.951 163.071C338.033 163.048 338.103 162.996 338.147 162.923C338.19 162.85 338.204 162.763 338.185 162.681C338.163 162.599 338.11 162.529 338.037 162.485C337.965 162.442 337.878 162.428 337.795 162.447C336.451 162.832 335.035 162.891 333.664 162.62C332.292 162.349 331.005 161.756 329.908 160.888C329.844 160.828 329.759 160.796 329.671 160.799C329.584 160.802 329.501 160.84 329.441 160.904C329.381 160.968 329.349 161.053 329.352 161.141C329.355 161.229 329.392 161.312 329.456 161.372C330.423 162.147 331.534 162.723 332.724 163.065C333.915 163.408 335.162 163.51 336.392 163.367Z" fill="#063963"/>
<path d="M301.884 124.257C300.167 125.37 298.74 126.877 297.724 128.653C296.707 130.429 296.129 132.422 296.039 134.466C295.975 135.247 296.098 136.032 296.397 136.757C296.556 137.114 296.805 137.424 297.119 137.656C297.433 137.888 297.802 138.035 298.19 138.082C299.374 138.082 300.247 137.022 300.902 136.025L303.91 131.349C305.149 129.825 306.196 128.155 307.027 126.376C308.04 123.306 303.723 123.134 301.884 124.257Z" fill="#FA541C"/>
<path d="M303.364 127.361C295.072 136.931 291.378 163.413 315.616 170.801C319.668 167.59 313.122 161.745 310.347 154.357C308.539 149.525 317.767 140.5 321.367 136.791C324.968 133.081 328.288 127.735 333.384 128.592C334.674 129.023 336.063 129.061 337.375 128.701C341.396 126.877 339.448 124.462 337.375 122.778C334.194 120.427 330.409 119.032 326.464 118.757C322.207 118.251 317.891 118.768 313.873 120.265C309.856 121.761 306.254 124.194 303.364 127.361Z" fill="#063963"/>
<path d="M330.283 124.148C340.009 132.268 327.166 132.471 320.355 137.615C313.543 142.758 318.391 150.645 307.355 154.401C298.331 157.036 296.242 155.461 293.732 153.7C296.83 153.174 299.665 151.635 301.795 149.325C303.924 147.015 305.227 144.064 305.5 140.934C306.249 135.012 319.139 114.733 330.283 124.148Z" fill="#063963"/>
<path d="M304.939 161.668C306.465 163.867 308.794 165.378 311.423 165.877C314.914 166.484 316.255 163.289 315.055 160.172C313.932 157.366 310.753 153.672 307.386 154.467C306.809 154.614 306.266 154.874 305.789 155.231C305.312 155.588 304.91 156.035 304.606 156.548C304.302 157.06 304.102 157.628 304.018 158.217C303.933 158.807 303.965 159.408 304.113 159.985C304.272 160.596 304.553 161.169 304.939 161.668Z" fill="#FDBAB9"/>
<path d="M328.599 124.974C330.485 129.774 335.925 129.135 339.962 134.154C342.425 137.272 347.288 127.655 340.679 123.867C334.07 120.079 325.638 117.461 328.599 124.974Z" fill="#063963"/>
<path d="M322.879 145.234C323.016 145.251 323.155 145.222 323.273 145.151C323.392 145.081 323.483 144.973 323.534 144.845C324.828 142.008 328.662 141.291 328.693 141.291C328.863 141.257 329.013 141.158 329.112 141.016C329.211 140.873 329.251 140.698 329.223 140.527C329.186 140.356 329.084 140.206 328.939 140.107C328.794 140.009 328.617 139.969 328.444 139.997C328.257 139.997 323.877 140.917 322.334 144.346C322.297 144.424 322.276 144.508 322.271 144.594C322.267 144.68 322.28 144.766 322.309 144.847C322.338 144.928 322.382 145.003 322.44 145.066C322.498 145.13 322.568 145.182 322.646 145.219H322.879V145.234Z" fill="#063963"/>
<path d="M343.142 139.504C343.256 139.513 343.37 139.489 343.472 139.437C343.574 139.385 343.659 139.306 343.719 139.208C343.815 139.065 343.851 138.89 343.819 138.721C343.786 138.552 343.689 138.402 343.547 138.304C342.684 137.706 341.689 137.325 340.648 137.192C339.606 137.059 338.548 137.178 337.562 137.54C337.469 137.566 337.383 137.611 337.309 137.672C337.235 137.734 337.175 137.811 337.133 137.897C337.092 137.984 337.069 138.079 337.067 138.175C337.066 138.271 337.085 138.367 337.123 138.455C337.162 138.543 337.219 138.622 337.29 138.686C337.362 138.751 337.447 138.799 337.539 138.827C337.631 138.856 337.727 138.864 337.823 138.852C337.918 138.84 338.01 138.807 338.092 138.756C338.867 138.485 339.696 138.403 340.509 138.517C341.322 138.631 342.097 138.937 342.768 139.411C342.884 139.47 343.012 139.502 343.142 139.504Z" fill="#063963"/>
<path d="M342.503 144.783C343.252 144.643 344.062 145.485 344.234 146.638C344.405 147.791 343.984 148.851 343.236 148.976C342.488 149.101 341.677 148.275 341.506 147.121C341.334 145.968 341.755 144.955 342.503 144.783Z" fill="#063963"/>
<path d="M344.81 143.648L342.176 144.941C343.766 146.064 344.81 143.648 344.81 143.648Z" fill="#063963"/>
<path d="M329.457 147.468C330.205 147.328 331.015 148.17 331.187 149.323C331.358 150.477 330.937 151.536 330.189 151.661C329.441 151.786 328.63 150.96 328.459 149.806C328.288 148.653 328.708 147.609 329.457 147.468Z" fill="#063963"/>
<path d="M331.764 146.327L329.13 147.62C330.72 148.743 331.764 146.327 331.764 146.327Z" fill="#063963"/>
<path d="M263.509 207.1C262.036 207.108 260.576 206.833 259.207 206.289C254.391 204.31 252.131 199.291 252.972 192.495C252.984 192.393 253.016 192.294 253.066 192.204C253.117 192.115 253.185 192.037 253.266 191.974C253.348 191.911 253.441 191.866 253.541 191.84C253.64 191.815 253.744 191.809 253.845 191.825C254.05 191.852 254.235 191.959 254.361 192.122C254.486 192.286 254.542 192.493 254.516 192.697C253.705 198.729 255.607 203.156 259.722 204.839C262.12 205.658 264.715 205.7 267.139 204.958C269.562 204.216 271.69 202.73 273.22 200.709C277.116 195.487 275.854 188.099 269.744 180.446C253.783 160.417 254.858 149.772 257.103 141.355C260.376 129.135 269.978 115.138 297.083 117.834C297.185 117.842 297.284 117.87 297.375 117.917C297.466 117.964 297.546 118.028 297.612 118.107C297.677 118.185 297.726 118.276 297.756 118.374C297.785 118.472 297.795 118.574 297.784 118.676C297.777 118.778 297.748 118.877 297.702 118.968C297.655 119.059 297.59 119.139 297.512 119.205C297.433 119.27 297.342 119.319 297.245 119.349C297.147 119.378 297.044 119.388 296.943 119.377C271.006 116.774 261.857 130.117 258.74 141.744C256.48 150.161 255.622 159.996 271.084 179.464C280.436 191.201 276.649 198.885 274.591 201.629C273.284 203.326 271.606 204.702 269.685 205.65C267.764 206.599 265.651 207.094 263.509 207.1Z" fill="#063963"/>
</svg>
